<?xml version="1.0" encoding="UTF-8"?>
<!DOCTYPE svg PUBLIC "-//W3C//DTD SVG 1.1//EN" "http://www.w3.org/Graphics/SVG/1.1/DTD/svg11.dtd">
<svg xmlns="http://www.w3.org/2000/svg" version="1.1" width="3333px" height="3333px" style="shape-rendering:geometricPrecision; text-rendering:geometricPrecision; image-rendering:optimizeQuality; fill-rule:evenodd; clip-rule:evenodd" xmlns:xlink="http://www.w3.org/1999/xlink">
<g><path style="opacity:0.998" fill="#ffffff" d="M 1565.5,265.5 C 1632.5,265.5 1699.5,265.5 1766.5,265.5C 1766.33,685.167 1766.5,1104.83 1767,1524.5C 1833,1590.5 1899,1656.5 1965,1722.5C 1965.33,1446.17 1965.67,1169.83 1966,893.5C 1974.7,794.158 2024.53,724.325 2115.5,684C 2193.05,654.141 2267.38,660.474 2338.5,703C 2361.75,719.235 2382.92,738.068 2402,759.5C 2799.78,1176.28 3021.12,1673.94 3066,2252.5C 3066.67,2365.83 3066.67,2479.17 3066,2592.5C 3056.86,2731.61 3001.02,2847.78 2898.5,2941C 2774.44,3046.03 2631.78,3085.03 2470.5,3058C 2353.15,3035 2251.15,2983 2164.5,2902C 2040.29,2782.7 1974.12,2636.54 1966,2463.5C 1965.67,2311.5 1965.33,2159.5 1965,2007.5C 1865.33,1907.83 1765.67,1808.17 1666,1708.5C 1566.33,1808.17 1466.67,1907.83 1367,2007.5C 1366.67,2162.17 1366.33,2316.83 1366,2471.5C 1355.55,2648.87 1284.72,2796.71 1153.5,2915C 1060.03,2996.71 951.367,3046.05 827.5,3063C 676.604,3078.69 544.271,3037.03 430.5,2938C 333.217,2847.92 278.717,2736.42 267,2603.5C 242.004,2235.79 295.671,1880.13 428,1536.5C 523.148,1297.05 653.148,1079.72 818,884.5C 863.657,831.167 911.157,779.334 960.5,729C 1023.36,673.507 1096.03,654.507 1178.5,672C 1257.37,691.555 1313.87,738.055 1348,811.5C 1358.09,835.851 1364.09,861.184 1366,887.5C 1366.33,1165.83 1366.67,1444.17 1367,1722.5C 1433,1656.5 1499,1590.5 1565,1524.5C 1565.5,1104.83 1565.67,685.167 1565.5,265.5 Z M 666.5,1966.5 C 732.833,1966.5 799.167,1966.5 865.5,1966.5C 865.5,2033.17 865.5,2099.83 865.5,2166.5C 932.167,2166.5 998.833,2166.5 1065.5,2166.5C 1065.5,2232.83 1065.5,2299.17 1065.5,2365.5C 998.833,2365.5 932.167,2365.5 865.5,2365.5C 865.5,2432.17 865.5,2498.83 865.5,2565.5C 799.167,2565.5 732.833,2565.5 666.5,2565.5C 666.5,2498.83 666.5,2432.17 666.5,2365.5C 599.833,2365.5 533.167,2365.5 466.5,2365.5C 466.5,2299.17 466.5,2232.83 466.5,2166.5C 533.167,2166.5 599.833,2166.5 666.5,2166.5C 666.5,2099.83 666.5,2033.17 666.5,1966.5 Z"/></g>
</svg>
