<?xml version="1.0" encoding="UTF-8"?>
<!DOCTYPE svg PUBLIC "-//W3C//DTD SVG 1.1//EN" "http://www.w3.org/Graphics/SVG/1.1/DTD/svg11.dtd">
<svg xmlns="http://www.w3.org/2000/svg" version="1.1" width="512px" height="512px" style="shape-rendering:geometricPrecision; text-rendering:geometricPrecision; image-rendering:optimizeQuality; fill-rule:evenodd; clip-rule:evenodd" xmlns:xlink="http://www.w3.org/1999/xlink">
<g><path style="opacity:0.976" fill="#ffffff" d="M 259.5,-0.5 C 272.5,-0.5 285.5,-0.5 298.5,-0.5C 376.668,11.83 428.502,55.4966 454,130.5C 456.899,140.66 458.899,150.993 460,161.5C 460.667,275.167 460.667,388.833 460,502.5C 458.312,506.685 455.479,509.685 451.5,511.5C 447.5,511.5 443.5,511.5 439.5,511.5C 435.521,509.685 432.688,506.685 431,502.5C 430.667,395.5 430.333,288.5 430,181.5C 427.933,122.164 401.433,77.6644 350.5,48C 302.833,23.3333 255.167,23.3333 207.5,48C 162.357,73.8492 136.19,112.683 129,164.5C 127.908,185.818 127.241,207.152 127,228.5C 115.294,250.746 103.461,272.913 91.5,295C 100.5,295.333 109.5,295.667 118.5,296C 121.735,297.36 124.235,299.527 126,302.5C 127.31,322.411 127.977,342.411 128,362.5C 130.363,396.064 147.863,416.898 180.5,425C 209.81,426.248 239.144,426.914 268.5,427C 272.667,428.5 275.5,431.333 277,435.5C 277.667,457.833 277.667,480.167 277,502.5C 275.312,506.685 272.479,509.685 268.5,511.5C 264.5,511.5 260.5,511.5 256.5,511.5C 252.521,509.685 249.688,506.685 248,502.5C 247.5,487.17 247.333,471.837 247.5,456.5C 222.129,456.942 196.795,456.442 171.5,455C 130.807,443.975 106.307,417.808 98,376.5C 97.5001,359.503 97.3334,342.503 97.5,325.5C 84.8289,325.667 72.1623,325.5 59.5,325C 51.0851,320.652 48.2517,313.819 51,304.5C 66.3333,275.833 81.6667,247.167 97,218.5C 97.0939,196.804 97.7606,175.138 99,153.5C 113.974,76.3604 159.14,26.6937 234.5,4.5C 242.943,2.6781 251.276,1.01143 259.5,-0.5 Z M 199.5,146.5 C 211.5,146.5 223.5,146.5 235.5,146.5C 235.5,169.833 235.5,193.167 235.5,216.5C 223.5,216.5 211.5,216.5 199.5,216.5C 199.5,193.167 199.5,169.833 199.5,146.5 Z M 265.5,146.5 C 289.167,146.5 312.833,146.5 336.5,146.5C 334.744,154.371 337.077,160.538 343.5,165C 351.054,166.432 358.721,166.932 366.5,166.5C 366.5,176.5 366.5,186.5 366.5,196.5C 358.721,196.068 351.054,196.568 343.5,198C 337.077,202.462 334.744,208.629 336.5,216.5C 312.833,216.5 289.167,216.5 265.5,216.5C 265.5,193.167 265.5,169.833 265.5,146.5 Z"/></g>
<g><path style="opacity:0.993" fill="#ffffff" d="M 178.5,116.5 C 238.168,116.333 297.834,116.5 357.5,117C 365.445,121.063 368.445,127.563 366.5,136.5C 373.841,136.334 381.174,136.5 388.5,137C 391.295,138.793 393.795,140.96 396,143.5C 397.138,156.1 397.638,168.767 397.5,181.5C 397.638,194.233 397.138,206.9 396,219.5C 393.795,222.04 391.295,224.207 388.5,226C 381.174,226.5 373.841,226.666 366.5,226.5C 368.445,235.437 365.445,241.937 357.5,246C 297.084,246.992 236.751,246.659 176.5,245C 173.527,243.235 171.36,240.735 170,237.5C 169.333,200.167 169.333,162.833 170,125.5C 171.688,121.315 174.521,118.315 178.5,116.5 Z M 199.5,146.5 C 199.5,169.833 199.5,193.167 199.5,216.5C 211.5,216.5 223.5,216.5 235.5,216.5C 235.5,193.167 235.5,169.833 235.5,146.5C 223.5,146.5 211.5,146.5 199.5,146.5 Z M 265.5,146.5 C 265.5,169.833 265.5,193.167 265.5,216.5C 289.167,216.5 312.833,216.5 336.5,216.5C 334.744,208.629 337.077,202.462 343.5,198C 351.054,196.568 358.721,196.068 366.5,196.5C 366.5,186.5 366.5,176.5 366.5,166.5C 358.721,166.932 351.054,166.432 343.5,165C 337.077,160.538 334.744,154.371 336.5,146.5C 312.833,146.5 289.167,146.5 265.5,146.5 Z"/></g>
</svg>
