<?xml version="1.0" encoding="UTF-8"?>
<!DOCTYPE svg PUBLIC "-//W3C//DTD SVG 1.1//EN" "http://www.w3.org/Graphics/SVG/1.1/DTD/svg11.dtd">
<svg xmlns="http://www.w3.org/2000/svg" version="1.1" width="752px" height="752px" style="fill: #0c64ae;;shape-rendering:geometricPrecision; text-rendering:geometricPrecision; image-rendering:optimizeQuality; fill-rule:evenodd; clip-rule:evenodd" xmlns:xlink="http://www.w3.org/1999/xlink">
<g><path style="opacity:0.946" d="M 369.5,146.5 C 394.235,145.423 409.735,156.757 416,180.5C 418.167,205.319 407.333,221.152 383.5,228C 357.726,230.538 341.559,219.371 335,194.5C 333.272,168.76 344.772,152.76 369.5,146.5 Z M 371.5,169.5 C 387.134,169.3 394.301,176.967 393,192.5C 388.125,204.24 379.625,208.074 367.5,204C 356.9,196.895 354.733,187.729 361,176.5C 363.998,173.262 367.498,170.929 371.5,169.5 Z"/></g>
<g><path style="opacity:0.944" d="M 269.5,217.5 C 280.854,219.543 284.354,225.877 280,236.5C 279.167,237.333 278.333,238.167 277.5,239C 239.391,246.444 215.558,268.944 206,306.5C 202.881,319.126 202.714,331.793 205.5,344.5C 203.183,355.556 196.85,358.722 186.5,354C 183.773,351.044 182.273,347.544 182,343.5C 176.669,296.447 193.169,259.28 231.5,232C 243.469,225.07 256.136,220.237 269.5,217.5 Z"/></g>
<g><path style="opacity:0.944" d="M 478.5,217.5 C 520.416,224.908 548.916,248.575 564,288.5C 570.5,308.168 571.834,328.168 568,348.5C 564.489,355.562 558.989,357.728 551.5,355C 547.617,352.608 545.617,349.108 545.5,344.5C 551.865,304.083 538.198,272.583 504.5,250C 494.599,245.144 484.266,241.477 473.5,239C 466.833,232.667 466.833,226.333 473.5,220C 475.315,219.243 476.981,218.41 478.5,217.5 Z"/></g>
<g><path style="opacity:0.967" d="M 359.5,229.5 C 387.415,226.382 413.415,231.882 437.5,246C 454.243,256.819 463.576,272.152 465.5,292C 466.273,298.127 463.94,302.46 458.5,305C 403.167,305.667 347.833,305.667 292.5,305C 287.06,302.46 284.727,298.127 285.5,292C 287.424,272.152 296.757,256.819 313.5,246C 327.811,237.331 343.144,231.831 359.5,229.5 Z M 370.5,251.5 C 393.274,250.769 413.607,257.269 431.5,271C 434.885,274.717 437.885,278.717 440.5,283C 397.501,283.5 354.501,283.667 311.5,283.5C 311.351,282.448 311.517,281.448 312,280.5C 320.774,268.085 332.607,259.918 347.5,256C 355.197,253.893 362.863,252.393 370.5,251.5 Z"/></g>
<g><path style="opacity:0.947" d="M 240.5,368.5 C 272.99,369.488 288.157,386.154 286,418.5C 278.544,442.273 262.377,452.773 237.5,450C 212.693,442.239 202.193,425.406 206,399.5C 211.412,382.248 222.912,371.915 240.5,368.5 Z M 242.5,391.5 C 258.287,392.106 265.12,400.106 263,415.5C 256.548,428.074 247.048,430.908 234.5,424C 224.884,414.017 225.217,404.351 235.5,395C 237.713,393.384 240.047,392.217 242.5,391.5 Z"/></g>
<g><path style="opacity:0.947" d="M 499.5,368.5 C 527.544,368.38 543.211,382.213 546.5,410C 544.547,430.941 533.547,444.275 513.5,450C 488.623,452.773 472.456,442.273 465,418.5C 462.231,391.798 473.731,375.131 499.5,368.5 Z M 501.5,391.5 C 512.528,390.933 519.695,395.933 523,406.5C 523.003,422.158 515.169,428.991 499.5,427C 487.367,420.906 484.2,411.739 490,399.5C 493.15,395.689 496.983,393.023 501.5,391.5 Z"/></g>
<g><path style="opacity:0.967" d="M 230.5,451.5 C 259.439,448.318 286.106,454.485 310.5,470C 326.019,481.199 334.685,496.366 336.5,515.5C 336.316,520.711 333.983,524.544 329.5,527C 273.084,527.992 216.751,527.658 160.5,526C 158.19,524.363 156.69,522.196 156,519.5C 155.532,499.935 163.032,484.102 178.5,472C 194.166,460.727 211.5,453.893 230.5,451.5 Z M 243.5,473.5 C 264.091,473.42 282.757,479.254 299.5,491C 303.89,495.122 307.557,499.789 310.5,505C 267.496,505.833 224.496,505.667 181.5,504.5C 191.095,490.1 204.428,480.933 221.5,477C 228.912,475.393 236.245,474.227 243.5,473.5 Z"/></g>
<g><path style="opacity:0.967" d="M 489.5,451.5 C 519.805,448.16 547.472,454.993 572.5,472C 585.057,481.887 592.557,494.721 595,510.5C 596.927,517.735 594.76,523.235 588.5,527C 532.084,527.992 475.751,527.658 419.5,526C 414.356,519.937 413.189,513.104 416,505.5C 422.88,483.617 437.047,468.45 458.5,460C 468.658,456.047 478.991,453.213 489.5,451.5 Z M 502.5,473.5 C 523.091,473.42 541.757,479.254 558.5,491C 563.113,494.775 566.78,499.275 569.5,504.5C 526.504,505.667 483.504,505.833 440.5,505C 448.982,490.907 461.315,481.907 477.5,478C 485.86,475.831 494.194,474.331 502.5,473.5 Z"/></g>
<g><path style="opacity:0.943" d="M 441.5,552.5 C 454.2,552.365 458.7,558.365 455,570.5C 428.414,597.473 396.248,608.307 358.5,603C 334.713,598.691 314.213,588.191 297,571.5C 293.009,558.954 297.509,553.121 310.5,554C 316.655,558.911 322.989,563.577 329.5,568C 370.734,590.069 408.068,584.903 441.5,552.5 Z"/></g>
</svg>
