<?xml version="1.0" encoding="UTF-8"?>
<!DOCTYPE svg PUBLIC "-//W3C//DTD SVG 1.1//EN" "http://www.w3.org/Graphics/SVG/1.1/DTD/svg11.dtd">
<svg xmlns="http://www.w3.org/2000/svg" version="1.1" width="981px" height="988px" style="shape-rendering:geometricPrecision; text-rendering:geometricPrecision; image-rendering:optimizeQuality; fill-rule:evenodd; clip-rule:evenodd" xmlns:xlink="http://www.w3.org/1999/xlink">
<g><path style="opacity:1" fill="currentColor" d="M 483.5,-0.5 C 487.5,-0.5 491.5,-0.5 495.5,-0.5C 582.044,1.23666 662.711,23.9033 737.5,67.5C 737.821,69.0481 738.821,69.7148 740.5,69.5C 741.167,69.8333 741.833,70.1667 742.5,70.5C 742.821,72.0481 743.821,72.7148 745.5,72.5C 747.332,73.2485 748.999,74.2485 750.5,75.5C 751.035,77.4456 752.368,78.4456 754.5,78.5C 758.439,80.4462 762.106,82.7795 765.5,85.5C 766.035,87.4456 767.368,88.4456 769.5,88.5C 789.657,102.316 808.657,117.65 826.5,134.5C 826.833,136.833 828.167,138.167 830.5,138.5C 834.167,141.5 837.5,144.833 840.5,148.5C 841.419,151.089 843.086,153.089 845.5,154.5C 848.833,157.167 851.833,160.167 854.5,163.5C 854.427,165.027 855.094,166.027 856.5,166.5C 857.833,167.167 858.833,168.167 859.5,169.5C 859.738,171.404 860.738,172.738 862.5,173.5C 863.833,174.167 864.833,175.167 865.5,176.5C 865.738,178.404 866.738,179.738 868.5,180.5C 869.5,180.833 870.167,181.5 870.5,182.5C 870.427,184.027 871.094,185.027 872.5,185.5C 873.5,185.833 874.167,186.5 874.5,187.5C 874.427,189.027 875.094,190.027 876.5,190.5C 880.984,195.467 884.984,200.8 888.5,206.5C 888.427,208.027 889.094,209.027 890.5,209.5C 890.738,211.404 891.738,212.738 893.5,213.5C 893.427,215.027 894.094,216.027 895.5,216.5C 895.427,218.027 896.094,219.027 897.5,219.5C 897.427,221.027 898.094,222.027 899.5,222.5C 899.427,224.027 900.094,225.027 901.5,225.5C 901.427,227.027 902.094,228.027 903.5,228.5C 904.338,228.842 904.672,229.508 904.5,230.5C 904.427,232.027 905.094,233.027 906.5,233.5C 906.427,235.027 907.094,236.027 908.5,236.5C 909.338,236.842 909.672,237.508 909.5,238.5C 909.427,240.027 910.094,241.027 911.5,241.5C 912.338,241.842 912.672,242.508 912.5,243.5C 912.427,245.027 913.094,246.027 914.5,246.5C 929.499,271.838 941.832,298.504 951.5,326.5C 951.12,328.698 951.787,330.365 953.5,331.5C 956.101,337.972 958.101,344.639 959.5,351.5C 959.41,354.152 960.076,356.485 961.5,358.5C 962.434,359.568 962.768,360.901 962.5,362.5C 962.41,365.152 963.076,367.485 964.5,369.5C 974.317,406.55 979.65,444.217 980.5,482.5C 980.5,486.833 980.5,491.167 980.5,495.5C 978.787,528.491 974.454,561.158 967.5,593.5C 966.833,593.167 966.167,592.833 965.5,592.5C 958.528,585.193 951.528,577.86 944.5,570.5C 943.415,568.413 941.749,567.08 939.5,566.5C 938.167,565.833 937.167,564.833 936.5,563.5C 936.027,562.094 935.027,561.427 933.5,561.5C 932.5,561.167 931.833,560.5 931.5,559.5C 930.738,557.738 929.404,556.738 927.5,556.5C 922.129,552.821 916.796,549.154 911.5,545.5C 911.027,544.094 910.027,543.427 908.5,543.5C 907.508,543.672 906.842,543.338 906.5,542.5C 906.027,541.094 905.027,540.427 903.5,540.5C 888.675,533.001 873.342,526.668 857.5,521.5C 860.915,448.176 845.582,379.176 811.5,314.5C 811.715,312.821 811.048,311.821 809.5,311.5C 808.833,310.167 808.167,308.833 807.5,307.5C 807.715,305.821 807.048,304.821 805.5,304.5C 805.167,303.833 804.833,303.167 804.5,302.5C 804.715,300.821 804.048,299.821 802.5,299.5C 800.902,297.302 799.569,294.969 798.5,292.5C 798.446,290.368 797.446,289.035 795.5,288.5C 795.167,287.833 794.833,287.167 794.5,286.5C 794.446,284.368 793.446,283.035 791.5,282.5C 781.136,267.807 769.803,253.807 757.5,240.5C 757.573,238.973 756.906,237.973 755.5,237.5C 750.5,233.167 745.833,228.5 741.5,223.5C 740.415,221.413 738.749,220.08 736.5,219.5C 734.167,217.833 732.167,215.833 730.5,213.5C 729.738,211.738 728.404,210.738 726.5,210.5C 725.5,210.167 724.833,209.5 724.5,208.5C 724.027,207.094 723.027,206.427 721.5,206.5C 718.94,204.727 716.607,202.727 714.5,200.5C 713.738,198.738 712.404,197.738 710.5,197.5C 709.833,197.5 709.5,197.167 709.5,196.5C 709.027,195.094 708.027,194.427 706.5,194.5C 705.738,192.738 704.404,191.738 702.5,191.5C 702.027,190.094 701.027,189.427 699.5,189.5C 698.738,187.738 697.404,186.738 695.5,186.5C 692.489,185.331 689.822,183.664 687.5,181.5C 687.027,180.094 686.027,179.427 684.5,179.5C 684.027,178.094 683.027,177.427 681.5,177.5C 680.508,177.672 679.842,177.338 679.5,176.5C 679.027,175.094 678.027,174.427 676.5,174.5C 675.508,174.672 674.842,174.338 674.5,173.5C 674.027,172.094 673.027,171.427 671.5,171.5C 654.006,162.086 636.006,153.753 617.5,146.5C 616.365,144.787 614.698,144.12 612.5,144.5C 607.607,143.204 602.94,141.538 598.5,139.5C 596.485,138.076 594.152,137.41 591.5,137.5C 474.6,106.917 367.267,126.75 269.5,197C 161.904,282.742 113.737,394.575 125,532.5C 127.127,548.969 129.961,565.302 133.5,581.5C 133.41,584.152 134.076,586.485 135.5,588.5C 135.41,591.152 136.076,593.485 137.5,595.5C 138.738,597.214 139.405,599.214 139.5,601.5C 139.12,603.698 139.787,605.365 141.5,606.5C 149.944,630.385 160.278,653.385 172.5,675.5C 172.427,677.027 173.094,678.027 174.5,678.5C 175.338,678.842 175.672,679.508 175.5,680.5C 175.427,682.027 176.094,683.027 177.5,683.5C 178.89,684.899 179.89,686.566 180.5,688.5C 180.427,690.027 181.094,691.027 182.5,691.5C 182.427,693.027 183.094,694.027 184.5,694.5C 184.427,696.027 185.094,697.027 186.5,697.5C 186.427,699.027 187.094,700.027 188.5,700.5C 188.738,702.404 189.738,703.738 191.5,704.5C 191.427,706.027 192.094,707.027 193.5,707.5C 195.633,709.091 197.299,711.091 198.5,713.5C 198.427,715.027 199.094,716.027 200.5,716.5C 202.727,718.607 204.727,720.94 206.5,723.5C 206.427,725.027 207.094,726.027 208.5,726.5C 209.833,727.167 210.833,728.167 211.5,729.5C 211.738,731.404 212.738,732.738 214.5,733.5C 217.5,735.833 220.167,738.5 222.5,741.5C 223.757,744.427 225.757,746.761 228.5,748.5C 229.5,749.167 230.5,749.833 231.5,750.5C 232.5,753.5 234.5,755.5 237.5,756.5C 256.794,774.802 277.794,790.802 300.5,804.5C 300.821,806.048 301.821,806.715 303.5,806.5C 304.167,806.833 304.833,807.167 305.5,807.5C 305.821,809.048 306.821,809.715 308.5,809.5C 374.435,845.592 445.102,861.758 520.5,858C 525.423,873.269 531.423,888.103 538.5,902.5C 538.427,904.027 539.094,905.027 540.5,905.5C 541.338,905.842 541.672,906.508 541.5,907.5C 541.427,909.027 542.094,910.027 543.5,910.5C 544.338,910.842 544.672,911.508 544.5,912.5C 544.427,914.027 545.094,915.027 546.5,915.5C 546.427,917.027 547.094,918.027 548.5,918.5C 548.427,920.027 549.094,921.027 550.5,921.5C 550.427,923.027 551.094,924.027 552.5,924.5C 554.633,926.091 556.299,928.091 557.5,930.5C 557.427,932.027 558.094,933.027 559.5,933.5C 560.5,933.833 561.167,934.5 561.5,935.5C 561.427,937.027 562.094,938.027 563.5,938.5C 565.833,940.167 567.833,942.167 569.5,944.5C 570.08,946.749 571.413,948.415 573.5,949.5C 574.833,950.5 576.167,951.5 577.5,952.5C 578.167,955.167 579.833,956.833 582.5,957.5C 585.167,959.833 587.833,962.167 590.5,964.5C 590.833,965.833 591.167,967.167 591.5,968.5C 517.247,985.332 443.247,984.332 369.5,965.5C 367.485,964.076 365.152,963.41 362.5,963.5C 360.901,963.768 359.568,963.434 358.5,962.5C 356.485,961.076 354.152,960.41 351.5,960.5C 316.248,950.868 282.915,936.868 251.5,918.5C 251.027,917.094 250.027,916.427 248.5,916.5C 246.847,916.34 245.514,915.674 244.5,914.5C 244.027,913.094 243.027,912.427 241.5,912.5C 240.508,912.672 239.842,912.338 239.5,911.5C 239.027,910.094 238.027,909.427 236.5,909.5C 235.508,909.672 234.842,909.338 234.5,908.5C 234.027,907.094 233.027,906.427 231.5,906.5C 229.566,905.89 227.899,904.89 226.5,903.5C 226.027,902.094 225.027,901.427 223.5,901.5C 223.027,900.094 222.027,899.427 220.5,899.5C 220.027,898.094 219.027,897.427 217.5,897.5C 217.027,896.094 216.027,895.427 214.5,895.5C 213.738,893.738 212.404,892.738 210.5,892.5C 207.63,891.567 205.296,889.9 203.5,887.5C 203.027,886.094 202.027,885.427 200.5,885.5C 199.738,883.738 198.404,882.738 196.5,882.5C 195.738,880.738 194.404,879.738 192.5,879.5C 192.027,878.094 191.027,877.427 189.5,877.5C 188.5,877.167 187.833,876.5 187.5,875.5C 187.027,874.094 186.027,873.427 184.5,873.5C 183.5,873.167 182.833,872.5 182.5,871.5C 182.027,870.094 181.027,869.427 179.5,869.5C 178.167,868.833 177.167,867.833 176.5,866.5C 176.027,865.094 175.027,864.427 173.5,864.5C 172.167,863.833 171.167,862.833 170.5,861.5C 170.027,860.094 169.027,859.427 167.5,859.5C 165.167,857.833 163.167,855.833 161.5,853.5C 160.415,851.413 158.749,850.08 156.5,849.5C 129.631,825.34 106.298,798.34 86.5,768.5C 86.4456,766.368 85.4456,765.035 83.5,764.5C 81.8079,762.795 80.4746,760.795 79.5,758.5C 79.7148,756.821 79.0481,755.821 77.5,755.5C 77.7148,753.821 77.0481,752.821 75.5,752.5C 74.2485,750.999 73.2485,749.332 72.5,747.5C 72.7148,745.821 72.0481,744.821 70.5,744.5C 70.1667,743.833 69.8333,743.167 69.5,742.5C 69.7148,740.821 69.0481,739.821 67.5,739.5C 67.1667,738.833 66.8333,738.167 66.5,737.5C 66.7148,735.821 66.0481,734.821 64.5,734.5C 26.4702,667.747 4.8035,596.08 -0.5,519.5C -0.5,499.833 -0.5,480.167 -0.5,460.5C 1.80576,428.666 7.1391,397.332 15.5,366.5C 16.9238,364.485 17.5905,362.152 17.5,359.5C 17.4095,356.848 18.0762,354.515 19.5,352.5C 20.9238,350.485 21.5905,348.152 21.5,345.5C 30.5568,314.728 42.8901,285.395 58.5,257.5C 59.9063,257.027 60.573,256.027 60.5,254.5C 61.7417,250.345 63.7417,246.678 66.5,243.5C 67.9063,243.027 68.573,242.027 68.5,240.5C 68.3284,239.508 68.6618,238.842 69.5,238.5C 70.9063,238.027 71.573,237.027 71.5,235.5C 72.1103,233.566 73.1103,231.899 74.5,230.5C 75.9063,230.027 76.573,229.027 76.5,227.5C 77.9063,227.027 78.573,226.027 78.5,224.5C 79.9063,224.027 80.573,223.027 80.5,221.5C 81.9063,221.027 82.573,220.027 82.5,218.5C 82.427,216.973 83.0937,215.973 84.5,215.5C 85.9063,215.027 86.573,214.027 86.5,212.5C 87.9063,212.027 88.573,211.027 88.5,209.5C 90.2624,208.738 91.2624,207.404 91.5,205.5C 91.7376,203.596 92.7376,202.262 94.5,201.5C 95.9063,201.027 96.573,200.027 96.5,198.5C 97.9063,198.027 98.573,197.027 98.5,195.5C 99.7007,193.091 101.367,191.091 103.5,189.5C 104.906,189.027 105.573,188.027 105.5,186.5C 105.833,185.5 106.5,184.833 107.5,184.5C 108.906,184.027 109.573,183.027 109.5,181.5C 109.833,180.5 110.5,179.833 111.5,179.5C 113.262,178.738 114.262,177.404 114.5,175.5C 115.167,174.167 116.167,173.167 117.5,172.5C 118.906,172.027 119.573,171.027 119.5,169.5C 120.833,167.5 122.5,165.833 124.5,164.5C 126.262,163.738 127.262,162.404 127.5,160.5C 131.5,155.833 135.833,151.5 140.5,147.5C 142.833,145.833 144.833,143.833 146.5,141.5C 148.5,138.833 150.833,136.5 153.5,134.5C 157.436,132.234 160.769,129.234 163.5,125.5C 163.833,124.5 164.5,123.833 165.5,123.5C 168.089,122.581 170.089,120.914 171.5,118.5C 171.5,117.833 171.833,117.5 172.5,117.5C 175.089,116.581 177.089,114.914 178.5,112.5C 180.749,111.92 182.415,110.587 183.5,108.5C 185.749,107.92 187.415,106.587 188.5,104.5C 189.579,102.457 191.246,101.124 193.5,100.5C 195.404,100.262 196.738,99.2624 197.5,97.5C 199.86,95.1468 202.527,93.1468 205.5,91.5C 207.027,91.573 208.027,90.9063 208.5,89.5C 214.976,84.0921 221.976,79.4254 229.5,75.5C 231.027,75.573 232.027,74.9063 232.5,73.5C 236.164,70.6654 240.164,68.332 244.5,66.5C 246.027,66.573 247.027,65.9063 247.5,64.5C 273.976,48.5979 301.976,35.9313 331.5,26.5C 335.915,26.1394 339.915,24.8061 343.5,22.5C 344.708,21.7659 346.041,21.4326 347.5,21.5C 350.152,21.5905 352.485,20.9238 354.5,19.5C 360.181,17.0561 366.181,15.3894 372.5,14.5C 375.495,14.7062 378.162,14.0395 380.5,12.5C 414.495,4.62575 448.828,0.292414 483.5,-0.5 Z"/></g>
<g><path style="opacity:1" fill="currentColor" d="M 380.5,12.5 C 378.162,14.0395 375.495,14.7062 372.5,14.5C 374.905,13.2318 377.572,12.5651 380.5,12.5 Z"/></g>
<g><path style="opacity:1" fill="currentColor" d="M 354.5,19.5 C 352.485,20.9238 350.152,21.5905 347.5,21.5C 349.515,20.0762 351.848,19.4095 354.5,19.5 Z"/></g>
<g><path style="opacity:1" fill="currentColor" d="M 343.5,22.5 C 339.915,24.8061 335.915,26.1394 331.5,26.5C 335.216,24.5947 339.216,23.2613 343.5,22.5 Z"/></g>
<g><path style="opacity:1" fill="currentColor" d="M 247.5,64.5 C 247.027,65.9063 246.027,66.573 244.5,66.5C 244.973,65.0937 245.973,64.427 247.5,64.5 Z"/></g>
<g><path style="opacity:1" fill="currentColor" d="M 737.5,67.5 C 738.71,67.9321 739.71,68.5987 740.5,69.5C 738.821,69.7148 737.821,69.0481 737.5,67.5 Z"/></g>
<g><path style="opacity:1" fill="currentColor" d="M 742.5,70.5 C 743.71,70.9321 744.71,71.5987 745.5,72.5C 743.821,72.7148 742.821,72.0481 742.5,70.5 Z"/></g>
<g><path style="opacity:1" fill="currentColor" d="M 232.5,73.5 C 232.027,74.9063 231.027,75.573 229.5,75.5C 229.973,74.0937 230.973,73.427 232.5,73.5 Z"/></g>
<g><path style="opacity:1" fill="currentColor" d="M 750.5,75.5 C 752.23,76.0256 753.564,77.0256 754.5,78.5C 752.368,78.4456 751.035,77.4456 750.5,75.5 Z"/></g>
<g><path style="opacity:1" fill="currentColor" d="M 765.5,85.5 C 767.23,86.0256 768.564,87.0256 769.5,88.5C 767.368,88.4456 766.035,87.4456 765.5,85.5 Z"/></g>
<g><path style="opacity:1" fill="currentColor" d="M 208.5,89.5 C 208.027,90.9063 207.027,91.573 205.5,91.5C 205.973,90.0937 206.973,89.427 208.5,89.5 Z"/></g>
<g><path style="opacity:1" fill="currentColor" d="M 197.5,97.5 C 196.738,99.2624 195.404,100.262 193.5,100.5C 194.262,98.7376 195.596,97.7376 197.5,97.5 Z"/></g>
<g><path style="opacity:1" fill="currentColor" d="M 188.5,104.5 C 187.415,106.587 185.749,107.92 183.5,108.5C 184.585,106.413 186.251,105.08 188.5,104.5 Z"/></g>
<g><path style="opacity:1" fill="currentColor" d="M 183.5,108.5 C 182.415,110.587 180.749,111.92 178.5,112.5C 179.585,110.413 181.251,109.08 183.5,108.5 Z"/></g>
<g><path style="opacity:1" fill="currentColor" d="M 178.5,112.5 C 177.089,114.914 175.089,116.581 172.5,117.5C 173.911,115.086 175.911,113.419 178.5,112.5 Z"/></g>
<g><path style="opacity:1" fill="currentColor" d="M 171.5,118.5 C 170.089,120.914 168.089,122.581 165.5,123.5C 166.911,121.086 168.911,119.419 171.5,118.5 Z"/></g>
<g><path style="opacity:1" fill="currentColor" d="M 163.5,125.5 C 160.769,129.234 157.436,132.234 153.5,134.5C 156.231,130.766 159.564,127.766 163.5,125.5 Z"/></g>
<g><path style="opacity:1" fill="currentColor" d="M 826.5,134.5 C 828.167,135.5 829.5,136.833 830.5,138.5C 828.167,138.167 826.833,136.833 826.5,134.5 Z"/></g>
<g><path style="opacity:1" fill="currentColor" d="M 591.5,137.5 C 594.152,137.41 596.485,138.076 598.5,139.5C 595.848,139.59 593.515,138.924 591.5,137.5 Z"/></g>
<g><path style="opacity:1" fill="currentColor" d="M 146.5,141.5 C 144.833,143.833 142.833,145.833 140.5,147.5C 141.5,144.5 143.5,142.5 146.5,141.5 Z"/></g>
<g><path style="opacity:1" fill="currentColor" d="M 612.5,144.5 C 614.698,144.12 616.365,144.787 617.5,146.5C 615.597,146.204 613.93,145.537 612.5,144.5 Z"/></g>
<g><path style="opacity:1" fill="currentColor" d="M 840.5,148.5 C 842.914,149.911 844.581,151.911 845.5,154.5C 843.086,153.089 841.419,151.089 840.5,148.5 Z"/></g>
<g><path style="opacity:1" fill="currentColor" d="M 127.5,160.5 C 127.262,162.404 126.262,163.738 124.5,164.5C 124.738,162.596 125.738,161.262 127.5,160.5 Z"/></g>
<g><path style="opacity:1" fill="currentColor" d="M 854.5,163.5 C 855.906,163.973 856.573,164.973 856.5,166.5C 855.094,166.027 854.427,165.027 854.5,163.5 Z"/></g>
<g><path style="opacity:1" fill="currentColor" d="M 119.5,169.5 C 119.573,171.027 118.906,172.027 117.5,172.5C 117.427,170.973 118.094,169.973 119.5,169.5 Z"/></g>
<g><path style="opacity:1" fill="currentColor" d="M 859.5,169.5 C 861.262,170.262 862.262,171.596 862.5,173.5C 860.738,172.738 859.738,171.404 859.5,169.5 Z"/></g>
<g><path style="opacity:1" fill="currentColor" d="M 671.5,171.5 C 673.027,171.427 674.027,172.094 674.5,173.5C 672.973,173.573 671.973,172.906 671.5,171.5 Z"/></g>
<g><path style="opacity:1" fill="currentColor" d="M 676.5,174.5 C 678.027,174.427 679.027,175.094 679.5,176.5C 677.973,176.573 676.973,175.906 676.5,174.5 Z"/></g>
<g><path style="opacity:1" fill="currentColor" d="M 114.5,175.5 C 114.262,177.404 113.262,178.738 111.5,179.5C 111.738,177.596 112.738,176.262 114.5,175.5 Z"/></g>
<g><path style="opacity:1" fill="currentColor" d="M 865.5,176.5 C 867.262,177.262 868.262,178.596 868.5,180.5C 866.738,179.738 865.738,178.404 865.5,176.5 Z"/></g>
<g><path style="opacity:1" fill="currentColor" d="M 681.5,177.5 C 683.027,177.427 684.027,178.094 684.5,179.5C 682.973,179.573 681.973,178.906 681.5,177.5 Z"/></g>
<g><path style="opacity:1" fill="currentColor" d="M 684.5,179.5 C 686.027,179.427 687.027,180.094 687.5,181.5C 685.973,181.573 684.973,180.906 684.5,179.5 Z"/></g>
<g><path style="opacity:1" fill="currentColor" d="M 109.5,181.5 C 109.573,183.027 108.906,184.027 107.5,184.5C 107.427,182.973 108.094,181.973 109.5,181.5 Z"/></g>
<g><path style="opacity:1" fill="currentColor" d="M 870.5,182.5 C 871.906,182.973 872.573,183.973 872.5,185.5C 871.094,185.027 870.427,184.027 870.5,182.5 Z"/></g>
<g><path style="opacity:1" fill="currentColor" d="M 105.5,186.5 C 105.573,188.027 104.906,189.027 103.5,189.5C 103.427,187.973 104.094,186.973 105.5,186.5 Z"/></g>
<g><path style="opacity:1" fill="currentColor" d="M 695.5,186.5 C 697.404,186.738 698.738,187.738 699.5,189.5C 697.596,189.262 696.262,188.262 695.5,186.5 Z"/></g>
<g><path style="opacity:1" fill="currentColor" d="M 874.5,187.5 C 875.906,187.973 876.573,188.973 876.5,190.5C 875.094,190.027 874.427,189.027 874.5,187.5 Z"/></g>
<g><path style="opacity:1" fill="currentColor" d="M 699.5,189.5 C 701.027,189.427 702.027,190.094 702.5,191.5C 700.973,191.573 699.973,190.906 699.5,189.5 Z"/></g>
<g><path style="opacity:1" fill="currentColor" d="M 702.5,191.5 C 704.404,191.738 705.738,192.738 706.5,194.5C 704.596,194.262 703.262,193.262 702.5,191.5 Z"/></g>
<g><path style="opacity:1" fill="currentColor" d="M 706.5,194.5 C 708.027,194.427 709.027,195.094 709.5,196.5C 707.973,196.573 706.973,195.906 706.5,194.5 Z"/></g>
<g><path style="opacity:1" fill="currentColor" d="M 98.5,195.5 C 98.573,197.027 97.9063,198.027 96.5,198.5C 96.427,196.973 97.0937,195.973 98.5,195.5 Z"/></g>
<g><path style="opacity:1" fill="currentColor" d="M 710.5,197.5 C 712.404,197.738 713.738,198.738 714.5,200.5C 712.596,200.262 711.262,199.262 710.5,197.5 Z"/></g>
<g><path style="opacity:1" fill="currentColor" d="M 96.5,198.5 C 96.573,200.027 95.9063,201.027 94.5,201.5C 94.427,199.973 95.0937,198.973 96.5,198.5 Z"/></g>
<g><path style="opacity:1" fill="currentColor" d="M 721.5,206.5 C 723.027,206.427 724.027,207.094 724.5,208.5C 722.973,208.573 721.973,207.906 721.5,206.5 Z"/></g>
<g><path style="opacity:1" fill="currentColor" d="M 91.5,205.5 C 91.2624,207.404 90.2624,208.738 88.5,209.5C 88.7376,207.596 89.7376,206.262 91.5,205.5 Z"/></g>
<g><path style="opacity:1" fill="currentColor" d="M 888.5,206.5 C 889.906,206.973 890.573,207.973 890.5,209.5C 889.094,209.027 888.427,208.027 888.5,206.5 Z"/></g>
<g><path style="opacity:1" fill="currentColor" d="M 726.5,210.5 C 728.404,210.738 729.738,211.738 730.5,213.5C 728.596,213.262 727.262,212.262 726.5,210.5 Z"/></g>
<g><path style="opacity:1" fill="currentColor" d="M 88.5,209.5 C 88.573,211.027 87.9063,212.027 86.5,212.5C 86.427,210.973 87.0937,209.973 88.5,209.5 Z"/></g>
<g><path style="opacity:1" fill="currentColor" d="M 890.5,209.5 C 892.262,210.262 893.262,211.596 893.5,213.5C 891.738,212.738 890.738,211.404 890.5,209.5 Z"/></g>
<g><path style="opacity:1" fill="currentColor" d="M 86.5,212.5 C 86.573,214.027 85.9063,215.027 84.5,215.5C 84.427,213.973 85.0937,212.973 86.5,212.5 Z"/></g>
<g><path style="opacity:1" fill="currentColor" d="M 893.5,213.5 C 894.906,213.973 895.573,214.973 895.5,216.5C 894.094,216.027 893.427,215.027 893.5,213.5 Z"/></g>
<g><path style="opacity:1" fill="currentColor" d="M 895.5,216.5 C 896.906,216.973 897.573,217.973 897.5,219.5C 896.094,219.027 895.427,218.027 895.5,216.5 Z"/></g>
<g><path style="opacity:1" fill="currentColor" d="M 736.5,219.5 C 738.749,220.08 740.415,221.413 741.5,223.5C 739.251,222.92 737.585,221.587 736.5,219.5 Z"/></g>
<g><path style="opacity:1" fill="currentColor" d="M 82.5,218.5 C 82.573,220.027 81.9063,221.027 80.5,221.5C 80.427,219.973 81.0937,218.973 82.5,218.5 Z"/></g>
<g><path style="opacity:1" fill="currentColor" d="M 897.5,219.5 C 898.906,219.973 899.573,220.973 899.5,222.5C 898.094,222.027 897.427,221.027 897.5,219.5 Z"/></g>
<g><path style="opacity:1" fill="currentColor" d="M 80.5,221.5 C 80.573,223.027 79.9063,224.027 78.5,224.5C 78.427,222.973 79.0937,221.973 80.5,221.5 Z"/></g>
<g><path style="opacity:1" fill="currentColor" d="M 899.5,222.5 C 900.906,222.973 901.573,223.973 901.5,225.5C 900.094,225.027 899.427,224.027 899.5,222.5 Z"/></g>
<g><path style="opacity:1" fill="currentColor" d="M 78.5,224.5 C 78.573,226.027 77.9063,227.027 76.5,227.5C 76.427,225.973 77.0937,224.973 78.5,224.5 Z"/></g>
<g><path style="opacity:1" fill="currentColor" d="M 901.5,225.5 C 902.906,225.973 903.573,226.973 903.5,228.5C 902.094,228.027 901.427,227.027 901.5,225.5 Z"/></g>
<g><path style="opacity:1" fill="currentColor" d="M 76.5,227.5 C 76.573,229.027 75.9063,230.027 74.5,230.5C 74.427,228.973 75.0937,227.973 76.5,227.5 Z"/></g>
<g><path style="opacity:1" fill="currentColor" d="M 904.5,230.5 C 905.906,230.973 906.573,231.973 906.5,233.5C 905.094,233.027 904.427,232.027 904.5,230.5 Z"/></g>
<g><path style="opacity:1" fill="currentColor" d="M 906.5,233.5 C 907.906,233.973 908.573,234.973 908.5,236.5C 907.094,236.027 906.427,235.027 906.5,233.5 Z"/></g>
<g><path style="opacity:1" fill="currentColor" d="M 71.5,235.5 C 71.573,237.027 70.9063,238.027 69.5,238.5C 69.427,236.973 70.0937,235.973 71.5,235.5 Z"/></g>
<g><path style="opacity:1" fill="currentColor" d="M 755.5,237.5 C 756.906,237.973 757.573,238.973 757.5,240.5C 756.094,240.027 755.427,239.027 755.5,237.5 Z"/></g>
<g><path style="opacity:1" fill="currentColor" d="M 909.5,238.5 C 910.906,238.973 911.573,239.973 911.5,241.5C 910.094,241.027 909.427,240.027 909.5,238.5 Z"/></g>
<g><path style="opacity:1" fill="currentColor" d="M 68.5,240.5 C 68.573,242.027 67.9063,243.027 66.5,243.5C 66.427,241.973 67.0937,240.973 68.5,240.5 Z"/></g>
<g><path style="opacity:1" fill="currentColor" d="M 551.5,466.5 C 550.501,393.002 550.167,319.335 550.5,245.5C 509.833,245.5 469.167,245.5 428.5,245.5C 428.5,335.5 428.5,425.5 428.5,515.5C 427.501,425.335 427.167,335.002 427.5,244.5C 468.833,244.5 510.167,244.5 551.5,244.5C 551.5,318.5 551.5,392.5 551.5,466.5 Z"/></g>
<g><path style="opacity:1" fill="currentColor" d="M 551.5,466.5 C 578.146,492.479 604.479,518.812 630.5,545.5C 599.5,571.833 570.833,600.5 544.5,631.5C 505.479,593.146 466.812,554.479 428.5,515.5C 428.5,425.5 428.5,335.5 428.5,245.5C 469.167,245.5 509.833,245.5 550.5,245.5C 550.167,319.335 550.501,393.002 551.5,466.5 Z"/></g>
<g><path style="opacity:1" fill="currentColor" d="M 912.5,243.5 C 913.906,243.973 914.573,244.973 914.5,246.5C 913.094,246.027 912.427,245.027 912.5,243.5 Z"/></g>
<g><path style="opacity:1" fill="currentColor" d="M 60.5,254.5 C 60.573,256.027 59.9063,257.027 58.5,257.5C 58.427,255.973 59.0937,254.973 60.5,254.5 Z"/></g>
<g><path style="opacity:1" fill="currentColor" d="M 791.5,282.5 C 793.446,283.035 794.446,284.368 794.5,286.5C 793.026,285.564 792.026,284.23 791.5,282.5 Z"/></g>
<g><path style="opacity:1" fill="currentColor" d="M 795.5,288.5 C 797.446,289.035 798.446,290.368 798.5,292.5C 797.026,291.564 796.026,290.23 795.5,288.5 Z"/></g>
<g><path style="opacity:1" fill="currentColor" d="M 802.5,299.5 C 804.048,299.821 804.715,300.821 804.5,302.5C 803.599,301.71 802.932,300.71 802.5,299.5 Z"/></g>
<g><path style="opacity:1" fill="currentColor" d="M 805.5,304.5 C 807.048,304.821 807.715,305.821 807.5,307.5C 806.599,306.71 805.932,305.71 805.5,304.5 Z"/></g>
<g><path style="opacity:1" fill="currentColor" d="M 809.5,311.5 C 811.048,311.821 811.715,312.821 811.5,314.5C 810.599,313.71 809.932,312.71 809.5,311.5 Z"/></g>
<g><path style="opacity:1" fill="currentColor" d="M 951.5,326.5 C 952.537,327.93 953.204,329.597 953.5,331.5C 951.787,330.365 951.12,328.698 951.5,326.5 Z"/></g>
<g><path style="opacity:1" fill="currentColor" d="M 21.5,345.5 C 21.5905,348.152 20.9238,350.485 19.5,352.5C 19.4095,349.848 20.0762,347.515 21.5,345.5 Z"/></g>
<g><path style="opacity:1" fill="currentColor" d="M 959.5,351.5 C 960.924,353.515 961.59,355.848 961.5,358.5C 960.076,356.485 959.41,354.152 959.5,351.5 Z"/></g>
<g><path style="opacity:1" fill="currentColor" d="M 17.5,359.5 C 17.5905,362.152 16.9238,364.485 15.5,366.5C 15.4095,363.848 16.0762,361.515 17.5,359.5 Z"/></g>
<g><path style="opacity:1" fill="currentColor" d="M 962.5,362.5 C 963.924,364.515 964.59,366.848 964.5,369.5C 963.076,367.485 962.41,365.152 962.5,362.5 Z"/></g>
<g><path style="opacity:1" fill="currentColor" d="M 903.5,540.5 C 905.027,540.427 906.027,541.094 906.5,542.5C 904.973,542.573 903.973,541.906 903.5,540.5 Z"/></g>
<g><path style="opacity:1" fill="currentColor" d="M 908.5,543.5 C 910.027,543.427 911.027,544.094 911.5,545.5C 909.973,545.573 908.973,544.906 908.5,543.5 Z"/></g>
<g><path style="opacity:1" fill="currentColor" d="M 927.5,556.5 C 929.404,556.738 930.738,557.738 931.5,559.5C 929.596,559.262 928.262,558.262 927.5,556.5 Z"/></g>
<g><path style="opacity:1" fill="currentColor" d="M 933.5,561.5 C 935.027,561.427 936.027,562.094 936.5,563.5C 934.973,563.573 933.973,562.906 933.5,561.5 Z"/></g>
<g><path style="opacity:1" fill="currentColor" d="M 939.5,566.5 C 941.749,567.08 943.415,568.413 944.5,570.5C 942.251,569.92 940.585,568.587 939.5,566.5 Z"/></g>
<g><path style="opacity:1" fill="currentColor" d="M 878.5,598.5 C 878.821,600.048 879.821,600.715 881.5,600.5C 892.679,607.01 903.012,614.677 912.5,623.5C 912.5,625.5 913.5,626.5 915.5,626.5C 917.833,628.167 919.833,630.167 921.5,632.5C 922.419,635.089 924.086,637.089 926.5,638.5C 927.833,639.167 928.833,640.167 929.5,641.5C 929.738,643.404 930.738,644.738 932.5,645.5C 933.5,645.833 934.167,646.5 934.5,647.5C 934.427,649.027 935.094,650.027 936.5,650.5C 938.262,651.262 939.262,652.596 939.5,654.5C 939.738,656.404 940.738,657.738 942.5,658.5C 942.427,660.027 943.094,661.027 944.5,661.5C 944.427,663.027 945.094,664.027 946.5,664.5C 946.427,666.027 947.094,667.027 948.5,667.5C 959.135,683.78 966.801,701.447 971.5,720.5C 971.41,723.152 972.076,725.485 973.5,727.5C 991.384,810.34 969.384,880.507 907.5,938C 870.025,968.771 827.025,985.271 778.5,987.5C 773.833,987.5 769.167,987.5 764.5,987.5C 749.274,986.721 734.274,984.388 719.5,980.5C 717.485,979.076 715.152,978.41 712.5,978.5C 694.854,974.401 678.521,967.401 663.5,957.5C 663.027,956.094 662.027,955.427 660.5,955.5C 659.508,955.672 658.842,955.338 658.5,954.5C 658.027,953.094 657.027,952.427 655.5,952.5C 655.027,951.094 654.027,950.427 652.5,950.5C 650.596,950.262 649.262,949.262 648.5,947.5C 648.027,946.094 647.027,945.427 645.5,945.5C 643.246,944.876 641.579,943.543 640.5,941.5C 639.738,939.738 638.404,938.738 636.5,938.5C 635.167,937.833 634.167,936.833 633.5,935.5C 632.738,933.738 631.404,932.738 629.5,932.5C 614.198,918.856 601.531,903.189 591.5,885.5C 591.715,883.821 591.048,882.821 589.5,882.5C 561.748,831.306 555.415,777.639 570.5,721.5C 571.924,719.485 572.59,717.152 572.5,714.5C 577.575,696.021 585.575,679.021 596.5,663.5C 597.906,663.027 598.573,662.027 598.5,660.5C 600.262,659.738 601.262,658.404 601.5,656.5C 602.906,656.027 603.573,655.027 603.5,653.5C 604.906,653.027 605.573,652.027 605.5,650.5C 605.833,649.5 606.5,648.833 607.5,648.5C 608.906,648.027 609.573,647.027 609.5,645.5C 610.167,644.167 611.167,643.167 612.5,642.5C 614.262,641.738 615.262,640.404 615.5,638.5C 619.167,634.167 623.167,630.167 627.5,626.5C 630.764,624.906 633.431,622.573 635.5,619.5C 635.5,618.833 635.833,618.5 636.5,618.5C 638.749,617.92 640.415,616.587 641.5,614.5C 642.579,612.457 644.246,611.124 646.5,610.5C 648.027,610.573 649.027,609.906 649.5,608.5C 653.148,605.34 657.148,602.673 661.5,600.5C 663.027,600.573 664.027,599.906 664.5,598.5C 665.514,597.326 666.847,596.66 668.5,596.5C 670.027,596.573 671.027,595.906 671.5,594.5C 680.078,589.714 689.078,585.714 698.5,582.5C 703.165,581.943 707.498,580.61 711.5,578.5C 714.152,578.59 716.485,577.924 718.5,576.5C 774.668,562.689 828.002,570.022 878.5,598.5 Z M 814.5,735.5 C 840.833,735.5 867.167,735.5 893.5,735.5C 893.5,759.833 893.5,784.167 893.5,808.5C 866.833,808.5 840.167,808.5 813.5,808.5C 813.5,837.167 813.5,865.833 813.5,894.5C 789.5,894.5 765.5,894.5 741.5,894.5C 741.5,865.833 741.5,837.167 741.5,808.5C 712.833,808.5 684.167,808.5 655.5,808.5C 655.5,784.167 655.5,759.833 655.5,735.5C 683.833,735.5 712.167,735.5 740.5,735.5C 741.498,709.339 741.831,683.005 741.5,656.5C 765.5,656.5 789.5,656.5 813.5,656.5C 813.169,683.005 813.502,709.339 814.5,735.5 Z"/></g>
<g><path style="opacity:1" fill="currentColor" d="M 718.5,576.5 C 716.485,577.924 714.152,578.59 711.5,578.5C 713.515,577.076 715.848,576.41 718.5,576.5 Z"/></g>
<g><path style="opacity:1" fill="currentColor" d="M 711.5,578.5 C 707.498,580.61 703.165,581.943 698.5,582.5C 702.502,580.39 706.835,579.057 711.5,578.5 Z"/></g>
<g><path style="opacity:1" fill="currentColor" d="M 133.5,581.5 C 134.924,583.515 135.59,585.848 135.5,588.5C 134.076,586.485 133.41,584.152 133.5,581.5 Z"/></g>
<g><path style="opacity:1" fill="currentColor" d="M 135.5,588.5 C 136.924,590.515 137.59,592.848 137.5,595.5C 136.076,593.485 135.41,591.152 135.5,588.5 Z"/></g>
<g><path style="opacity:1" fill="currentColor" d="M 965.5,592.5 C 966.167,592.833 966.833,593.167 967.5,593.5C 966.377,594.757 965.711,594.424 965.5,592.5 Z"/></g>
<g><path style="opacity:1" fill="currentColor" d="M 671.5,594.5 C 671.027,595.906 670.027,596.573 668.5,596.5C 668.973,595.094 669.973,594.427 671.5,594.5 Z"/></g>
<g><path style="opacity:1" fill="currentColor" d="M 664.5,598.5 C 664.027,599.906 663.027,600.573 661.5,600.5C 661.973,599.094 662.973,598.427 664.5,598.5 Z"/></g>
<g><path style="opacity:1" fill="currentColor" d="M 878.5,598.5 C 879.71,598.932 880.71,599.599 881.5,600.5C 879.821,600.715 878.821,600.048 878.5,598.5 Z"/></g>
<g><path style="opacity:1" fill="currentColor" d="M 139.5,601.5 C 140.537,602.93 141.204,604.597 141.5,606.5C 139.787,605.365 139.12,603.698 139.5,601.5 Z"/></g>
<g><path style="opacity:1" fill="currentColor" d="M 649.5,608.5 C 649.027,609.906 648.027,610.573 646.5,610.5C 646.973,609.094 647.973,608.427 649.5,608.5 Z"/></g>
<g><path style="opacity:1" fill="currentColor" d="M 641.5,614.5 C 640.415,616.587 638.749,617.92 636.5,618.5C 637.585,616.413 639.251,615.08 641.5,614.5 Z"/></g>
<g><path style="opacity:1" fill="currentColor" d="M 635.5,619.5 C 633.431,622.573 630.764,624.906 627.5,626.5C 629.569,623.427 632.236,621.094 635.5,619.5 Z"/></g>
<g><path style="opacity:1" fill="currentColor" d="M 912.5,623.5 C 913.833,624.167 914.833,625.167 915.5,626.5C 913.5,626.5 912.5,625.5 912.5,623.5 Z"/></g>
<g><path style="opacity:1" fill="currentColor" d="M 921.5,632.5 C 923.914,633.911 925.581,635.911 926.5,638.5C 924.086,637.089 922.419,635.089 921.5,632.5 Z"/></g>
<g><path style="opacity:1" fill="currentColor" d="M 615.5,638.5 C 615.262,640.404 614.262,641.738 612.5,642.5C 612.738,640.596 613.738,639.262 615.5,638.5 Z"/></g>
<g><path style="opacity:1" fill="currentColor" d="M 929.5,641.5 C 931.262,642.262 932.262,643.596 932.5,645.5C 930.738,644.738 929.738,643.404 929.5,641.5 Z"/></g>
<g><path style="opacity:1" fill="currentColor" d="M 609.5,645.5 C 609.573,647.027 608.906,648.027 607.5,648.5C 607.427,646.973 608.094,645.973 609.5,645.5 Z"/></g>
<g><path style="opacity:1" fill="currentColor" d="M 934.5,647.5 C 935.906,647.973 936.573,648.973 936.5,650.5C 935.094,650.027 934.427,649.027 934.5,647.5 Z"/></g>
<g><path style="opacity:1" fill="currentColor" d="M 605.5,650.5 C 605.573,652.027 604.906,653.027 603.5,653.5C 603.427,651.973 604.094,650.973 605.5,650.5 Z"/></g>
<g><path style="opacity:1" fill="currentColor" d="M 603.5,653.5 C 603.573,655.027 602.906,656.027 601.5,656.5C 601.427,654.973 602.094,653.973 603.5,653.5 Z"/></g>
<g><path style="opacity:1" fill="currentColor" d="M 814.5,735.5 C 813.502,709.339 813.169,683.005 813.5,656.5C 789.5,656.5 765.5,656.5 741.5,656.5C 741.831,683.005 741.498,709.339 740.5,735.5C 740.5,708.833 740.5,682.167 740.5,655.5C 765.167,655.5 789.833,655.5 814.5,655.5C 814.5,682.167 814.5,708.833 814.5,735.5 Z"/></g>
<g><path style="opacity:1" fill="currentColor" d="M 939.5,654.5 C 941.262,655.262 942.262,656.596 942.5,658.5C 940.738,657.738 939.738,656.404 939.5,654.5 Z"/></g>
<g><path style="opacity:1" fill="currentColor" d="M 601.5,656.5 C 601.262,658.404 600.262,659.738 598.5,660.5C 598.738,658.596 599.738,657.262 601.5,656.5 Z"/></g>
<g><path style="opacity:1" fill="currentColor" d="M 942.5,658.5 C 943.906,658.973 944.573,659.973 944.5,661.5C 943.094,661.027 942.427,660.027 942.5,658.5 Z"/></g>
<g><path style="opacity:1" fill="currentColor" d="M 598.5,660.5 C 598.573,662.027 597.906,663.027 596.5,663.5C 596.427,661.973 597.094,660.973 598.5,660.5 Z"/></g>
<g><path style="opacity:1" fill="currentColor" d="M 944.5,661.5 C 945.906,661.973 946.573,662.973 946.5,664.5C 945.094,664.027 944.427,663.027 944.5,661.5 Z"/></g>
<g><path style="opacity:1" fill="currentColor" d="M 946.5,664.5 C 947.906,664.973 948.573,665.973 948.5,667.5C 947.094,667.027 946.427,666.027 946.5,664.5 Z"/></g>
<g><path style="opacity:1" fill="currentColor" d="M 172.5,675.5 C 173.906,675.973 174.573,676.973 174.5,678.5C 173.094,678.027 172.427,677.027 172.5,675.5 Z"/></g>
<g><path style="opacity:1" fill="currentColor" d="M 175.5,680.5 C 176.906,680.973 177.573,681.973 177.5,683.5C 176.094,683.027 175.427,682.027 175.5,680.5 Z"/></g>
<g><path style="opacity:1" fill="currentColor" d="M 180.5,688.5 C 181.906,688.973 182.573,689.973 182.5,691.5C 181.094,691.027 180.427,690.027 180.5,688.5 Z"/></g>
<g><path style="opacity:1" fill="currentColor" d="M 182.5,691.5 C 183.906,691.973 184.573,692.973 184.5,694.5C 183.094,694.027 182.427,693.027 182.5,691.5 Z"/></g>
<g><path style="opacity:1" fill="currentColor" d="M 184.5,694.5 C 185.906,694.973 186.573,695.973 186.5,697.5C 185.094,697.027 184.427,696.027 184.5,694.5 Z"/></g>
<g><path style="opacity:1" fill="currentColor" d="M 186.5,697.5 C 187.906,697.973 188.573,698.973 188.5,700.5C 187.094,700.027 186.427,699.027 186.5,697.5 Z"/></g>
<g><path style="opacity:1" fill="currentColor" d="M 188.5,700.5 C 190.262,701.262 191.262,702.596 191.5,704.5C 189.738,703.738 188.738,702.404 188.5,700.5 Z"/></g>
<g><path style="opacity:1" fill="currentColor" d="M 191.5,704.5 C 192.906,704.973 193.573,705.973 193.5,707.5C 192.094,707.027 191.427,706.027 191.5,704.5 Z"/></g>
<g><path style="opacity:1" fill="currentColor" d="M 198.5,713.5 C 199.906,713.973 200.573,714.973 200.5,716.5C 199.094,716.027 198.427,715.027 198.5,713.5 Z"/></g>
<g><path style="opacity:1" fill="currentColor" d="M 572.5,714.5 C 572.59,717.152 571.924,719.485 570.5,721.5C 570.41,718.848 571.076,716.515 572.5,714.5 Z"/></g>
<g><path style="opacity:1" fill="currentColor" d="M 206.5,723.5 C 207.906,723.973 208.573,724.973 208.5,726.5C 207.094,726.027 206.427,725.027 206.5,723.5 Z"/></g>
<g><path style="opacity:1" fill="currentColor" d="M 971.5,720.5 C 972.924,722.515 973.59,724.848 973.5,727.5C 972.076,725.485 971.41,723.152 971.5,720.5 Z"/></g>
<g><path style="opacity:1" fill="currentColor" d="M 211.5,729.5 C 213.262,730.262 214.262,731.596 214.5,733.5C 212.738,732.738 211.738,731.404 211.5,729.5 Z"/></g>
<g><path style="opacity:1" fill="currentColor" d="M 64.5,734.5 C 66.0481,734.821 66.7148,735.821 66.5,737.5C 65.5987,736.71 64.9321,735.71 64.5,734.5 Z"/></g>
<g><path style="opacity:1" fill="currentColor" d="M 67.5,739.5 C 69.0481,739.821 69.7148,740.821 69.5,742.5C 68.5987,741.71 67.9321,740.71 67.5,739.5 Z"/></g>
<g><path style="opacity:1" fill="currentColor" d="M 222.5,741.5 C 225.243,743.239 227.243,745.573 228.5,748.5C 225.757,746.761 223.757,744.427 222.5,741.5 Z"/></g>
<g><path style="opacity:1" fill="currentColor" d="M 70.5,744.5 C 72.0481,744.821 72.7148,745.821 72.5,747.5C 71.5987,746.71 70.9321,745.71 70.5,744.5 Z"/></g>
<g><path style="opacity:1" fill="currentColor" d="M 231.5,750.5 C 233.833,752.167 235.833,754.167 237.5,756.5C 234.5,755.5 232.5,753.5 231.5,750.5 Z"/></g>
<g><path style="opacity:1" fill="currentColor" d="M 75.5,752.5 C 77.0481,752.821 77.7148,753.821 77.5,755.5C 76.5987,754.71 75.9321,753.71 75.5,752.5 Z"/></g>
<g><path style="opacity:1" fill="currentColor" d="M 77.5,755.5 C 79.0481,755.821 79.7148,756.821 79.5,758.5C 78.5987,757.71 77.9321,756.71 77.5,755.5 Z"/></g>
<g><path style="opacity:1" fill="currentColor" d="M 83.5,764.5 C 85.4456,765.035 86.4456,766.368 86.5,768.5C 85.0256,767.564 84.0256,766.23 83.5,764.5 Z"/></g>
<g><path style="opacity:1" fill="currentColor" d="M 300.5,804.5 C 301.71,804.932 302.71,805.599 303.5,806.5C 301.821,806.715 300.821,806.048 300.5,804.5 Z"/></g>
<g><path style="opacity:1" fill="currentColor" d="M 305.5,807.5 C 306.71,807.932 307.71,808.599 308.5,809.5C 306.821,809.715 305.821,809.048 305.5,807.5 Z"/></g>
<g><path style="opacity:1" fill="currentColor" d="M 655.5,735.5 C 655.5,759.833 655.5,784.167 655.5,808.5C 684.167,808.5 712.833,808.5 741.5,808.5C 741.5,837.167 741.5,865.833 741.5,894.5C 740.502,866.338 740.169,838.005 740.5,809.5C 711.833,809.5 683.167,809.5 654.5,809.5C 654.169,784.661 654.502,759.994 655.5,735.5 Z"/></g>
<g><path style="opacity:1" fill="currentColor" d="M 893.5,808.5 C 867.339,809.498 841.005,809.831 814.5,809.5C 814.831,838.005 814.498,866.338 813.5,894.5C 813.5,865.833 813.5,837.167 813.5,808.5C 840.167,808.5 866.833,808.5 893.5,808.5 Z"/></g>
<g><path style="opacity:1" fill="currentColor" d="M 156.5,849.5 C 158.749,850.08 160.415,851.413 161.5,853.5C 159.251,852.92 157.585,851.587 156.5,849.5 Z"/></g>
<g><path style="opacity:1" fill="currentColor" d="M 167.5,859.5 C 169.027,859.427 170.027,860.094 170.5,861.5C 168.973,861.573 167.973,860.906 167.5,859.5 Z"/></g>
<g><path style="opacity:1" fill="currentColor" d="M 173.5,864.5 C 175.027,864.427 176.027,865.094 176.5,866.5C 174.973,866.573 173.973,865.906 173.5,864.5 Z"/></g>
<g><path style="opacity:1" fill="currentColor" d="M 179.5,869.5 C 181.027,869.427 182.027,870.094 182.5,871.5C 180.973,871.573 179.973,870.906 179.5,869.5 Z"/></g>
<g><path style="opacity:1" fill="currentColor" d="M 184.5,873.5 C 186.027,873.427 187.027,874.094 187.5,875.5C 185.973,875.573 184.973,874.906 184.5,873.5 Z"/></g>
<g><path style="opacity:1" fill="currentColor" d="M 189.5,877.5 C 191.027,877.427 192.027,878.094 192.5,879.5C 190.973,879.573 189.973,878.906 189.5,877.5 Z"/></g>
<g><path style="opacity:1" fill="currentColor" d="M 192.5,879.5 C 194.404,879.738 195.738,880.738 196.5,882.5C 194.596,882.262 193.262,881.262 192.5,879.5 Z"/></g>
<g><path style="opacity:1" fill="currentColor" d="M 589.5,882.5 C 591.048,882.821 591.715,883.821 591.5,885.5C 590.599,884.71 589.932,883.71 589.5,882.5 Z"/></g>
<g><path style="opacity:1" fill="currentColor" d="M 196.5,882.5 C 198.404,882.738 199.738,883.738 200.5,885.5C 198.596,885.262 197.262,884.262 196.5,882.5 Z"/></g>
<g><path style="opacity:1" fill="currentColor" d="M 200.5,885.5 C 202.027,885.427 203.027,886.094 203.5,887.5C 201.973,887.573 200.973,886.906 200.5,885.5 Z"/></g>
<g><path style="opacity:1" fill="currentColor" d="M 210.5,892.5 C 212.404,892.738 213.738,893.738 214.5,895.5C 212.596,895.262 211.262,894.262 210.5,892.5 Z"/></g>
<g><path style="opacity:1" fill="currentColor" d="M 214.5,895.5 C 216.027,895.427 217.027,896.094 217.5,897.5C 215.973,897.573 214.973,896.906 214.5,895.5 Z"/></g>
<g><path style="opacity:1" fill="currentColor" d="M 217.5,897.5 C 219.027,897.427 220.027,898.094 220.5,899.5C 218.973,899.573 217.973,898.906 217.5,897.5 Z"/></g>
<g><path style="opacity:1" fill="currentColor" d="M 220.5,899.5 C 222.027,899.427 223.027,900.094 223.5,901.5C 221.973,901.573 220.973,900.906 220.5,899.5 Z"/></g>
<g><path style="opacity:1" fill="currentColor" d="M 223.5,901.5 C 225.027,901.427 226.027,902.094 226.5,903.5C 224.973,903.573 223.973,902.906 223.5,901.5 Z"/></g>
<g><path style="opacity:1" fill="currentColor" d="M 538.5,902.5 C 539.906,902.973 540.573,903.973 540.5,905.5C 539.094,905.027 538.427,904.027 538.5,902.5 Z"/></g>
<g><path style="opacity:1" fill="currentColor" d="M 231.5,906.5 C 233.027,906.427 234.027,907.094 234.5,908.5C 232.973,908.573 231.973,907.906 231.5,906.5 Z"/></g>
<g><path style="opacity:1" fill="currentColor" d="M 541.5,907.5 C 542.906,907.973 543.573,908.973 543.5,910.5C 542.094,910.027 541.427,909.027 541.5,907.5 Z"/></g>
<g><path style="opacity:1" fill="currentColor" d="M 236.5,909.5 C 238.027,909.427 239.027,910.094 239.5,911.5C 237.973,911.573 236.973,910.906 236.5,909.5 Z"/></g>
<g><path style="opacity:1" fill="currentColor" d="M 241.5,912.5 C 243.027,912.427 244.027,913.094 244.5,914.5C 242.973,914.573 241.973,913.906 241.5,912.5 Z"/></g>
<g><path style="opacity:1" fill="currentColor" d="M 544.5,912.5 C 545.906,912.973 546.573,913.973 546.5,915.5C 545.094,915.027 544.427,914.027 544.5,912.5 Z"/></g>
<g><path style="opacity:1" fill="currentColor" d="M 248.5,916.5 C 250.027,916.427 251.027,917.094 251.5,918.5C 249.973,918.573 248.973,917.906 248.5,916.5 Z"/></g>
<g><path style="opacity:1" fill="currentColor" d="M 546.5,915.5 C 547.906,915.973 548.573,916.973 548.5,918.5C 547.094,918.027 546.427,917.027 546.5,915.5 Z"/></g>
<g><path style="opacity:1" fill="currentColor" d="M 548.5,918.5 C 549.906,918.973 550.573,919.973 550.5,921.5C 549.094,921.027 548.427,920.027 548.5,918.5 Z"/></g>
<g><path style="opacity:1" fill="currentColor" d="M 550.5,921.5 C 551.906,921.973 552.573,922.973 552.5,924.5C 551.094,924.027 550.427,923.027 550.5,921.5 Z"/></g>
<g><path style="opacity:1" fill="currentColor" d="M 557.5,930.5 C 558.906,930.973 559.573,931.973 559.5,933.5C 558.094,933.027 557.427,932.027 557.5,930.5 Z"/></g>
<g><path style="opacity:1" fill="currentColor" d="M 629.5,932.5 C 631.404,932.738 632.738,933.738 633.5,935.5C 631.596,935.262 630.262,934.262 629.5,932.5 Z"/></g>
<g><path style="opacity:1" fill="currentColor" d="M 561.5,935.5 C 562.906,935.973 563.573,936.973 563.5,938.5C 562.094,938.027 561.427,937.027 561.5,935.5 Z"/></g>
<g><path style="opacity:1" fill="currentColor" d="M 636.5,938.5 C 638.404,938.738 639.738,939.738 640.5,941.5C 638.596,941.262 637.262,940.262 636.5,938.5 Z"/></g>
<g><path style="opacity:1" fill="currentColor" d="M 569.5,944.5 C 571.587,945.585 572.92,947.251 573.5,949.5C 571.413,948.415 570.08,946.749 569.5,944.5 Z"/></g>
<g><path style="opacity:1" fill="currentColor" d="M 645.5,945.5 C 647.027,945.427 648.027,946.094 648.5,947.5C 646.973,947.573 645.973,946.906 645.5,945.5 Z"/></g>
<g><path style="opacity:1" fill="currentColor" d="M 652.5,950.5 C 654.027,950.427 655.027,951.094 655.5,952.5C 653.973,952.573 652.973,951.906 652.5,950.5 Z"/></g>
<g><path style="opacity:1" fill="currentColor" d="M 577.5,952.5 C 579.5,953.833 581.167,955.5 582.5,957.5C 579.833,956.833 578.167,955.167 577.5,952.5 Z"/></g>
<g><path style="opacity:1" fill="currentColor" d="M 655.5,952.5 C 657.027,952.427 658.027,953.094 658.5,954.5C 656.973,954.573 655.973,953.906 655.5,952.5 Z"/></g>
<g><path style="opacity:1" fill="currentColor" d="M 660.5,955.5 C 662.027,955.427 663.027,956.094 663.5,957.5C 661.973,957.573 660.973,956.906 660.5,955.5 Z"/></g>
<g><path style="opacity:1" fill="currentColor" d="M 351.5,960.5 C 354.152,960.41 356.485,961.076 358.5,962.5C 355.848,962.59 353.515,961.924 351.5,960.5 Z"/></g>
<g><path style="opacity:1" fill="currentColor" d="M 362.5,963.5 C 365.152,963.41 367.485,964.076 369.5,965.5C 366.848,965.59 364.515,964.924 362.5,963.5 Z"/></g>
<g><path style="opacity:1" fill="currentColor" d="M 590.5,964.5 C 591.962,965.458 593.295,966.624 594.5,968C 593.552,968.483 592.552,968.649 591.5,968.5C 591.167,967.167 590.833,965.833 590.5,964.5 Z"/></g>
<g><path style="opacity:1" fill="currentColor" d="M 712.5,978.5 C 715.152,978.41 717.485,979.076 719.5,980.5C 716.848,980.59 714.515,979.924 712.5,978.5 Z"/></g>
</svg>
