<svg viewBox="0 0 207.07 70.6" xmlns="http://www.w3.org/2000/svg" xmlns:xlink="http://www.w3.org/1999/xlink" id="Warstwa_1" overflow="hidden"><defs></defs><path d="M104.96 68.95 92.47 68.95 92.47 5.3 104.96 5.3 104.96 68.95Z" fill="#FFFFFF"/><path d="M150.68 68.95 147.4 64.53 146.11 64.53C145.16 66.07 143.62 67.3 141.48 68.22 139.34 69.14 136.92 69.6 134.24 69.6 126.91 69.6 121.78 68 118.82 64.81 115.78 61.62 114.26 56.02 114.26 48.02L114.26 22.18 126.8 22.18 126.8 48.26C126.8 51.78 127.43 54.37 128.7 56.05 129.97 57.73 132.27 58.57 135.61 58.57 141.34 58.57 144.2 55.16 144.2 48.35L144.2 22.19 156.74 22.19 156.74 68.96 150.67 68.96Z" fill="#FFFFFF"/><rect x="68.33" y="56.45" width="12.1" height="12.12" fill="#FFFFFF"/><path d="M68.47 31.35 50.66 56.45 68.47 56.45 68.47 31.35Z" fill="#FFFFFF"/><path d="M15.35 29.91C14.74 30.06 14.43 30.31 14.43 30.69 14.43 31.37 15.08 31.71 16.38 31.71 16.41 31.73 16.63 31.73 17.05 31.7 17.47 31.67 17.89 31.57 18.33 31.4 18.77 31.23 18.99 31 19 30.69L19 29.69 18.25 29.69C16.94 29.69 15.98 29.76 15.36 29.91Z" fill="#FFFFFF"/><path d="M0 0 0 68.43 34.71 68.43 34.71 54.1 64.46 12.85 68.33 12.85 68.33 0 0 0ZM23.97 35.36 21.33 35.36 20.35 34.16 19.92 34.16C19.03 35.09 17.72 35.56 15.99 35.56L15.13 35.56C14.31 35.52 13.52 35.39 12.75 35.16 11.81 34.89 11.03 34.42 10.41 33.74 9.79 33.06 9.48 32.14 9.48 30.97 9.56 29.13 10.43 27.88 12.09 27.22 12.64 27 13.14 26.83 13.57 26.73 14 26.63 14.56 26.54 15.22 26.47 15.48 26.45 15.78 26.43 16.12 26.41 16.46 26.39 16.66 26.37 16.71 26.37L19 26.37C18.99 26.11 18.96 25.91 18.92 25.75 18.88 25.59 18.8 25.43 18.68 25.26 18.56 25.09 18.37 24.97 18.12 24.88 17.86 24.79 17.54 24.74 17.14 24.71 16.08 24.71 15.48 25.08 15.33 25.83L10.38 25.83C10.38 25.42 10.43 25.01 10.54 24.6 10.65 24.18 10.86 23.74 11.17 23.27 11.48 22.8 11.88 22.39 12.35 22.03 12.83 21.67 13.47 21.38 14.29 21.14 15.1 20.9 16.03 20.79 17.08 20.79 18.13 20.79 19.16 20.92 20.05 21.18 20.94 21.44 21.63 21.77 22.13 22.16 22.59 22.53 22.98 22.99 23.3 23.52 23.76 24.33 23.99 25.17 23.99 26.04L23.99 35.36ZM30.7 35.69 26.22 35.69 26.22 19.73 30.7 19.73 30.7 35.69ZM30.21 18.15C29.74 18.62 29.15 18.85 28.46 18.85 27.77 18.85 27.2 18.62 26.73 18.15 26.26 17.68 26.02 17.11 26.02 16.41 26.02 15.71 26.26 15.16 26.73 14.69 27.2 14.21 27.78 13.98 28.46 13.98 29.14 13.98 29.73 14.22 30.21 14.69 30.69 15.16 30.92 15.74 30.92 16.42 30.92 17.1 30.68 17.69 30.21 18.16Z" fill="#FFFFFF"/><path d="M163.3 53.06 176.51 53.06C176.59 53.23 176.69 53.33 176.69 53.43 176.9 59.26 180.71 60.27 184.76 60.41 186.68 60.47 188.66 60.1 190.53 59.6 192.02 59.2 193.11 58.04 193.08 56.32 193.05 54.67 192.12 53.47 190.54 53.07 186.52 52.04 182.45 51.2 178.43 50.17 176.02 49.55 173.59 48.89 171.31 47.94 167.31 46.26 164.33 43.53 163.95 38.91 163.55 34.02 165.18 29.91 169.25 26.96 172.48 24.63 176.21 23.67 180.09 23.3 185.57 22.77 191.03 22.81 196.32 24.56 202.69 26.68 206.37 32.9 205.2 39.44L192.53 39.44C192.4 36.94 191.75 34.69 189.26 33.75 186.1 32.55 182.8 32.49 179.74 33.97 178.91 34.37 178.16 35.85 178.17 36.83 178.18 37.69 179.14 39.02 179.97 39.31 182.76 40.28 185.68 40.86 188.54 41.62 192.09 42.57 195.72 43.31 199.15 44.59 203.46 46.21 206.47 49.25 206.98 54.1 207.54 59.4 205.59 63.64 201.21 66.7 197.49 69.3 193.23 70.32 188.77 70.51 183.71 70.72 178.67 70.65 173.75 69.16 166.41 66.93 162.5 61.01 163.3 53.06Z" fill="#FFFFFF"/></svg>