<svg width="279" height="98" xmlns="http://www.w3.org/2000/svg" xmlns:xlink="http://www.w3.org/1999/xlink" overflow="hidden"><defs><clipPath id="clip0"><rect x="938" y="68" width="279" height="98"/></clipPath><clipPath id="clip1"><rect x="939" y="69" width="278" height="97"/></clipPath><clipPath id="clip2"><rect x="939" y="69" width="278" height="97"/></clipPath><clipPath id="clip3"><rect x="939" y="69" width="278" height="97"/></clipPath></defs><g clip-path="url(#clip0)" transform="translate(-938 -68)"><g clip-path="url(#clip1)"><g clip-path="url(#clip2)"><g clip-path="url(#clip3)"><path d="M140.913 92.5682 124.145 92.5682 124.145 7.11547 140.913 7.11547 140.913 92.5682Z" fill="#FFFFFF" fill-rule="nonzero" fill-opacity="1" transform="matrix(1 0 0 1.01728 939 69.2895)"/><path d="M202.294 92.5682 197.891 86.6342 196.159 86.6342C194.883 88.7017 192.816 90.353 189.943 91.5882 187.07 92.8233 183.821 93.4409 180.223 93.4409 170.382 93.4409 163.495 91.2928 159.521 87.0101 155.439 82.7274 153.399 75.2092 153.399 64.4688L153.399 29.7776 170.234 29.7776 170.234 64.791C170.234 69.5168 171.08 72.994 172.785 75.2494 174.49 77.5049 177.578 78.6326 182.062 78.6326 189.755 78.6326 193.594 74.0546 193.594 64.9119L193.594 29.791 210.43 29.791 210.43 92.5816 202.281 92.5816Z" fill="#FFFFFF" fill-rule="nonzero" fill-opacity="1" transform="matrix(1 0 0 1.01728 939 69.2895)"/><path d="M91.7358 75.7865 107.981 75.7865 107.981 92.0581 91.7358 92.0581Z" fill="#FFFFFF" fill-rule="nonzero" fill-opacity="1" transform="matrix(1 0 0 1.01728 939 69.2895)"/><path d="M91.9238 42.0887 68.0131 75.7865 91.9238 75.7865 91.9238 42.0887Z" fill="#FFFFFF" fill-rule="nonzero" fill-opacity="1" transform="matrix(1 0 0 1.01728 939 69.2895)"/><path d="M20.608 40.1554C19.7891 40.3568 19.3729 40.6924 19.3729 41.2026 19.3729 42.1155 20.2455 42.572 21.9908 42.572 22.0311 42.5988 22.3265 42.5988 22.8903 42.5586 23.4542 42.5183 24.0181 42.384 24.6088 42.1558 25.1995 41.9276 25.4949 41.6188 25.5083 41.2026L25.5083 39.8601 24.5014 39.8601C22.7426 39.8601 21.4538 39.954 20.6214 40.1554Z" fill="#FFFFFF" fill-rule="nonzero" fill-opacity="1" transform="matrix(1 0 0 1.01728 939 69.2895)"/><path d="M0 0 0 91.8701 46.5996 91.8701 46.5996 72.6315 86.5402 17.2517 91.7358 17.2517 91.7358 0 0 0ZM32.1807 47.4723 28.6364 47.4723 27.3207 45.8612 26.7434 45.8612C25.5486 47.1098 23.7898 47.7408 21.4672 47.7408L20.3126 47.7408C19.2118 47.6871 18.1512 47.5125 17.1174 47.2038 15.8554 46.8413 14.8082 46.2103 13.9759 45.2973 13.1435 44.3844 12.7273 43.1493 12.7273 41.5785 12.8347 39.1082 14.0027 37.43 16.2313 36.544 16.9697 36.2486 17.641 36.0204 18.2183 35.8861 18.7956 35.7519 19.5474 35.631 20.4335 35.5371 20.7825 35.5102 21.1853 35.4834 21.6418 35.4565 22.0982 35.4297 22.3667 35.4028 22.4339 35.4028L25.5083 35.4028C25.4949 35.0538 25.4546 34.7852 25.4009 34.5704 25.3472 34.3556 25.2398 34.1408 25.0787 33.9126 24.9176 33.6844 24.6625 33.5233 24.3268 33.4024 23.9778 33.2816 23.5482 33.2145 23.0112 33.1742 21.5881 33.1742 20.7825 33.6709 20.5812 34.6778L13.9356 34.6778C13.9356 34.1274 14.0027 33.577 14.1504 33.0265 14.2981 32.4626 14.58 31.8719 14.9962 31.2409 15.4124 30.6099 15.9494 30.0595 16.5804 29.5762 17.2248 29.0929 18.084 28.7035 19.1849 28.3813 20.2724 28.0591 21.5209 27.9114 22.9306 27.9114 24.3403 27.9114 25.7231 28.086 26.9179 28.435 28.1128 28.7841 29.0392 29.2271 29.7104 29.7507 30.328 30.2475 30.8516 30.865 31.2812 31.5766 31.8988 32.664 32.2076 33.7918 32.2076 34.9598L32.2076 47.4723ZM41.216 47.9153 35.2014 47.9153 35.2014 26.4883 41.216 26.4883 41.216 47.9153ZM40.5582 24.3671C39.9272 24.9981 39.1351 25.3069 38.2087 25.3069 37.2824 25.3069 36.5171 24.9981 35.8861 24.3671 35.2551 23.7361 34.9329 22.9709 34.9329 22.0311 34.9329 21.0913 35.2551 20.3529 35.8861 19.7219 36.5171 19.0775 37.2958 18.7687 38.2087 18.7687 39.1217 18.7687 39.9137 19.0909 40.5582 19.7219 41.2026 20.3529 41.5114 21.1316 41.5114 22.0445 41.5114 22.9575 41.1892 23.7496 40.5582 24.3805Z" fill="#FFFFFF" fill-rule="nonzero" fill-opacity="1" transform="matrix(1 0 0 1.01728 939 69.2895)"/><path d="M219.237 71.2352 236.972 71.2352C237.079 71.4635 237.214 71.5977 237.214 71.732 237.496 79.559 242.611 80.915 248.048 81.1029 250.626 81.1835 253.284 80.6867 255.794 80.0155 257.795 79.4784 259.258 77.9211 259.218 75.6119 259.178 73.3967 257.929 71.7857 255.808 71.2487 250.411 69.8658 244.947 68.7381 239.55 67.3553 236.314 66.5229 233.052 65.6368 229.991 64.3614 224.621 62.106 220.62 58.4408 220.11 52.2383 219.573 45.6733 221.761 40.1554 227.225 36.1949 231.562 33.0668 236.569 31.778 241.778 31.2812 249.135 30.5697 256.466 30.6234 263.568 32.9728 272.12 35.819 277.06 44.1696 275.489 52.9498L258.479 52.9498C258.305 49.5935 257.432 46.5728 254.089 45.3108 249.847 43.6997 245.417 43.6192 241.308 45.6061 240.194 46.1431 239.187 48.1301 239.201 49.4458 239.214 50.6004 240.503 52.386 241.617 52.7753 245.363 54.0776 249.283 54.8562 253.123 55.8766 257.889 57.152 262.762 58.1455 267.367 59.8639 273.153 62.0388 277.194 66.1202 277.879 72.6315 278.631 79.7469 276.013 85.4393 270.133 89.5475 265.138 93.0381 259.419 94.4075 253.432 94.6626 246.638 94.9445 239.872 94.8505 233.267 92.8502 223.412 89.8563 218.163 81.9084 219.237 71.2352Z" fill="#FFFFFF" fill-rule="nonzero" fill-opacity="1" transform="matrix(1 0 0 1.01728 939 69.2895)"/></g></g></g></g></svg>