<svg width="285" height="91" xmlns="http://www.w3.org/2000/svg" xmlns:xlink="http://www.w3.org/1999/xlink" overflow="hidden"><defs><clipPath id="clip0"><rect x="944" y="65" width="285" height="91"/></clipPath><clipPath id="clip1"><rect x="944" y="66" width="285" height="89"/></clipPath><clipPath id="clip2"><rect x="944" y="66" width="285" height="89"/></clipPath><clipPath id="clip3"><rect x="944" y="66" width="285" height="89"/></clipPath></defs><g clip-path="url(#clip0)" transform="translate(-944 -65)"><g clip-path="url(#clip1)"><g clip-path="url(#clip2)"><g clip-path="url(#clip3)"><path d="M189.946 86.9193 185.82 81.3536 184.207 81.3536C183.011 83.2955 181.069 84.856 178.364 86.0004 175.659 87.1621 172.625 87.7343 169.227 87.7343 159.985 87.7343 153.518 85.723 149.79 81.7004 145.958 77.6778 144.033 70.6209 144.033 60.5297L144.033 27.9501 159.829 27.9501 159.829 60.8245C159.829 65.2632 160.627 68.5229 162.222 70.6382 163.817 72.7536 166.73 73.8112 170.926 73.8112 178.156 73.8112 181.763 69.5112 181.763 60.9285L181.763 27.9501 197.558 27.9501 197.558 86.902 189.912 86.902Z" fill="#DADADA" fill-rule="nonzero" fill-opacity="1" transform="matrix(1.00811 0 0 1 944.584 66)"/><path d="M86.1391 71.1584 101.397 71.1584 101.397 86.4339 86.1391 86.4339Z" fill="#DADADA" fill-rule="nonzero" fill-opacity="1" transform="matrix(1.00811 0 0 1 944.584 66)"/><path d="M86.3125 39.5151 63.8588 71.1584 86.3125 71.1584 86.3125 39.5151Z" fill="#DADADA" fill-rule="nonzero" fill-opacity="1" transform="matrix(1.00811 0 0 1 944.584 66)"/><path d="M19.3501 37.6945C18.5698 37.8853 18.1884 38.1974 18.1884 38.6828 18.1884 39.5498 19.0033 39.9659 20.6505 39.9659 20.6852 40.0006 20.9626 40.0006 21.5001 39.9659 22.0376 39.9312 22.5578 39.7925 23.1126 39.5845 23.6674 39.3764 23.9449 39.0816 23.9622 38.6828L23.9622 37.4344 23.0086 37.4344C21.3614 37.4344 20.1477 37.5211 19.3674 37.7119Z" fill="#DADADA" fill-rule="nonzero" fill-opacity="1" transform="matrix(1.00811 0 0 1 944.584 66)"/><path d="M0 0 0 86.2605 43.7631 86.2605 43.7631 68.1935 81.2669 16.1944 86.1391 16.1944 86.1391 0 0 0ZM30.2215 44.578 26.8925 44.578 25.6441 43.0695 25.1066 43.0695C23.9795 44.2486 22.3324 44.8208 20.1477 44.8208L19.0553 44.8208C18.015 44.7688 17.0267 44.5954 16.0557 44.3179 14.8593 43.9885 13.8884 43.3816 13.1081 42.5321 12.3279 41.6651 11.9291 40.5034 11.9291 39.047 12.0331 36.7236 13.1255 35.1457 15.2235 34.3135 15.917 34.036 16.5412 33.828 17.096 33.6893 17.6509 33.5506 18.3444 33.4465 19.1767 33.3598 19.5061 33.3425 19.8703 33.3078 20.3037 33.2731 20.7372 33.2385 20.9799 33.2211 21.0493 33.2211L23.9275 33.2211C23.9275 32.8917 23.8755 32.6316 23.8235 32.4409 23.7715 32.2501 23.6674 32.0421 23.5287 31.834 23.3727 31.6259 23.1473 31.4699 22.8178 31.3485 22.4884 31.2445 22.0896 31.1751 21.5695 31.1405 20.2344 31.1405 19.4715 31.6086 19.2807 32.5622L13.0388 32.5622C13.0388 32.0421 13.1081 31.5393 13.2468 31.0018 13.3855 30.4816 13.6456 29.9268 14.0444 29.3372 14.4432 28.7477 14.9287 28.2275 15.5356 27.7767 16.1424 27.3259 16.9573 26.9445 17.9803 26.6497 19.0033 26.355 20.1824 26.1989 21.5001 26.1989 22.8178 26.1989 24.1183 26.355 25.2453 26.6844 26.3723 27.0138 27.2392 27.43 27.8634 27.9328 28.453 28.4009 28.9384 28.9731 29.3372 29.6493 29.9268 30.6723 30.2042 31.73 30.2042 32.8223L30.2042 44.578ZM38.7002 44.9942 33.0477 44.9942 33.0477 24.8812 38.7002 24.8812 38.7002 44.9942ZM38.076 22.8872C37.4691 23.4767 36.7409 23.7715 35.874 23.7715 35.007 23.7715 34.2961 23.4767 33.6893 22.8872 33.0997 22.2977 32.805 21.5695 32.805 20.7025 32.805 19.8356 33.0997 19.1247 33.6893 18.5352 34.2788 17.9283 35.007 17.6335 35.874 17.6335 36.7409 17.6335 37.4865 17.9283 38.076 18.5178 38.6655 19.1073 38.9776 19.8356 38.9776 20.7025 38.9776 21.5695 38.6828 22.2977 38.076 22.8872Z" fill="#DADADA" fill-rule="nonzero" fill-opacity="1" transform="matrix(1.00811 0 0 1 944.584 66)"/><path d="M205.846 66.8757 222.491 66.8757C222.595 67.0838 222.717 67.2225 222.717 67.3439 222.977 74.6955 227.78 75.9786 232.877 76.1346 235.287 76.2213 237.801 75.7358 240.142 75.1116 242.032 74.6088 243.402 73.135 243.35 70.985 243.315 68.9044 242.136 67.3959 240.142 66.8757 235.079 65.5753 229.947 64.5176 224.867 63.2172 221.832 62.437 218.763 61.6047 215.885 60.4083 210.84 58.293 207.094 54.8426 206.609 49.0341 206.106 42.8615 208.152 37.6772 213.302 33.9667 217.376 31.0364 222.075 29.8227 226.965 29.3546 233.866 28.6957 240.766 28.7304 247.424 30.9497 255.452 33.6199 260.099 41.4744 258.625 49.7103L242.656 49.7103C242.483 46.5546 241.685 43.7284 238.53 42.5321 234.542 41.0236 230.398 40.9542 226.531 42.8095 225.474 43.3123 224.537 45.1849 224.555 46.4159 224.555 47.5083 225.768 49.1728 226.826 49.5369 230.346 50.768 234.022 51.4789 237.628 52.4498 242.102 53.6462 246.679 54.5825 250.996 56.195 256.423 58.241 260.221 62.0729 260.862 68.1761 261.573 74.8689 259.111 80.2092 253.58 84.0584 248.881 87.3355 243.523 88.6185 237.906 88.8613 231.525 89.1387 225.162 89.0347 218.972 87.1621 209.713 84.3532 204.788 76.8975 205.794 66.8584Z" fill="#DADADA" fill-rule="nonzero" fill-opacity="1" transform="matrix(1.00811 0 0 1 944.584 66)"/><path d="M263.255 16.0731 263.255 6.74479 259.77 6.74479 259.77 4.78551 268.925 4.78551 268.925 6.74479 265.544 6.74479 265.544 16.0731 263.255 16.0731ZM270.294 16.0731 270.294 4.78551 273.866 4.78551 275.912 12.5533 277.975 4.78551 281.547 4.78551 281.547 16.0731 279.363 16.0731 279.363 7.07423 276.918 16.0731 274.854 16.0731 272.427 7.07423 272.427 16.0731 270.277 16.0731Z" fill="#DADADA" fill-rule="nonzero" fill-opacity="1" transform="matrix(1.00811 0 0 1 944.584 66)"/><path d="M124.909 6.67543 116.569 6.67543 116.569 86.9193 132.312 86.9193 132.312 16.0384 124.909 6.67543Z" fill="#DADADA" fill-rule="nonzero" fill-opacity="1" transform="matrix(1.00811 0 0 1 944.584 66)"/></g></g></g></g></svg>