<?xml version="1.0" encoding="UTF-8"?>
<!DOCTYPE svg PUBLIC "-//W3C//DTD SVG 1.1//EN" "http://www.w3.org/Graphics/SVG/1.1/DTD/svg11.dtd">
<svg xmlns="http://www.w3.org/2000/svg" version="1.1" width="512px" height="512px" style="shape-rendering:geometricPrecision; text-rendering:geometricPrecision; image-rendering:optimizeQuality; fill-rule:evenodd; clip-rule:evenodd" xmlns:xlink="http://www.w3.org/1999/xlink">
<g><path style="opacity:0.956" fill="currentColor" d="M 250.5,-0.5 C 253.833,-0.5 257.167,-0.5 260.5,-0.5C 262.134,0.971672 263.634,2.63834 265,4.5C 265.5,18.1626 265.667,31.8293 265.5,45.5C 349.025,52.2337 409.525,92.9003 447,167.5C 458.202,192.307 464.369,218.307 465.5,245.5C 479.171,245.333 492.837,245.5 506.5,246C 508.362,247.366 510.028,248.866 511.5,250.5C 511.5,253.833 511.5,257.167 511.5,260.5C 510.028,262.134 508.362,263.634 506.5,265C 492.837,265.5 479.171,265.667 465.5,265.5C 458.766,349.025 418.1,409.525 343.5,447C 318.693,458.202 292.693,464.369 265.5,465.5C 265.667,479.171 265.5,492.837 265,506.5C 263.634,508.362 262.134,510.028 260.5,511.5C 257.167,511.5 253.833,511.5 250.5,511.5C 248.866,510.028 247.366,508.362 246,506.5C 245.5,492.837 245.333,479.171 245.5,465.5C 161.975,458.766 101.475,418.1 64,343.5C 52.7981,318.693 46.6315,292.693 45.5,265.5C 31.8293,265.667 18.1626,265.5 4.5,265C 2.63834,263.634 0.971672,262.134 -0.5,260.5C -0.5,257.167 -0.5,253.833 -0.5,250.5C 0.971672,248.866 2.63834,247.366 4.5,246C 18.1626,245.5 31.8293,245.333 45.5,245.5C 52.2337,161.975 92.9003,101.475 167.5,64C 192.307,52.7981 218.307,46.6315 245.5,45.5C 245.333,31.8293 245.5,18.1626 246,4.5C 247.366,2.63834 248.866,0.971672 250.5,-0.5 Z M 236.5,66.5 C 239.5,66.5 242.5,66.5 245.5,66.5C 245.5,89.5 245.5,112.5 245.5,135.5C 202.483,140.079 170.316,161.079 149,198.5C 141.235,213.228 136.735,228.895 135.5,245.5C 112.5,245.5 89.5,245.5 66.5,245.5C 73.8659,166.325 113.866,110.825 186.5,79C 202.83,72.9175 219.497,68.7508 236.5,66.5 Z M 265.5,66.5 C 341.469,73.3796 395.969,111.046 429,179.5C 438.26,200.54 443.427,222.54 444.5,245.5C 421.5,245.5 398.5,245.5 375.5,245.5C 370.921,202.483 349.921,170.316 312.5,149C 297.772,141.235 282.105,136.735 265.5,135.5C 265.5,112.5 265.5,89.5 265.5,66.5 Z M 241.5,156.5 C 242.833,156.5 244.167,156.5 245.5,156.5C 245.334,164.507 245.5,172.507 246,180.5C 249.655,185.275 254.488,186.775 260.5,185C 262.333,183.833 263.833,182.333 265,180.5C 265.5,172.507 265.666,164.507 265.5,156.5C 298.248,160.779 323.414,176.779 341,204.5C 348.406,217.219 352.906,230.885 354.5,245.5C 346.493,245.334 338.493,245.5 330.5,246C 325.725,249.655 324.225,254.488 326,260.5C 327.167,262.333 328.667,263.833 330.5,265C 338.493,265.5 346.493,265.666 354.5,265.5C 350.22,298.25 334.22,323.417 306.5,341C 293.779,348.407 280.112,352.907 265.5,354.5C 265.666,346.493 265.5,338.493 265,330.5C 261.345,325.725 256.512,324.225 250.5,326C 248.667,327.167 247.167,328.667 246,330.5C 245.5,338.493 245.334,346.493 245.5,354.5C 212.752,350.221 187.586,334.221 170,306.5C 162.594,293.781 158.094,280.115 156.5,265.5C 164.507,265.666 172.507,265.5 180.5,265C 185.275,261.345 186.775,256.512 185,250.5C 183.833,248.667 182.333,247.167 180.5,246C 172.507,245.5 164.507,245.334 156.5,245.5C 164.774,196.561 193.108,166.894 241.5,156.5 Z M 66.5,265.5 C 89.5,265.5 112.5,265.5 135.5,265.5C 142.255,318.085 170.588,353.252 220.5,371C 228.692,373.339 237.026,374.839 245.5,375.5C 245.5,398.5 245.5,421.5 245.5,444.5C 169.527,437.619 115.027,399.952 82,331.5C 72.7401,310.46 67.5734,288.46 66.5,265.5 Z M 375.5,265.5 C 398.5,265.5 421.5,265.5 444.5,265.5C 437.619,341.473 399.952,395.973 331.5,429C 310.46,438.26 288.46,443.427 265.5,444.5C 265.5,421.5 265.5,398.5 265.5,375.5C 318.085,368.745 353.252,340.412 371,290.5C 373.339,282.308 374.839,273.974 375.5,265.5 Z"/></g>
<g><path style="opacity:0.908" fill="currentColor" d="M 310.5,95.5 C 322.324,93.8236 327.158,98.8236 325,110.5C 321.345,115.275 316.512,116.775 310.5,115C 305.725,111.345 304.225,106.512 306,100.5C 307.366,98.6383 308.866,96.9717 310.5,95.5 Z"/></g>
<g><path style="opacity:0.931" fill="currentColor" d="M 347.5,115.5 C 350.794,115.259 353.794,116.092 356.5,118C 381.625,136.799 400.458,160.632 413,189.5C 416.267,201.474 411.767,206.641 399.5,205C 397.714,204.215 396.214,203.049 395,201.5C 383.331,173.503 365.331,150.503 341,132.5C 337.363,124.341 339.53,118.674 347.5,115.5 Z"/></g>
<g><path style="opacity:0.982" fill="currentColor" d="M 250.5,205.5 C 256.52,204.22 261.353,205.887 265,210.5C 265.5,222.162 265.667,233.829 265.5,245.5C 277.171,245.333 288.838,245.5 300.5,246C 305.275,249.655 306.775,254.488 305,260.5C 303.833,262.333 302.333,263.833 300.5,265C 288.838,265.5 277.171,265.667 265.5,265.5C 265.667,277.171 265.5,288.838 265,300.5C 261.345,305.275 256.512,306.775 250.5,305C 248.667,303.833 247.167,302.333 246,300.5C 245.5,288.838 245.333,277.171 245.5,265.5C 233.829,265.667 222.162,265.5 210.5,265C 205.725,261.345 204.225,256.512 206,250.5C 207.167,248.667 208.667,247.167 210.5,246C 222.162,245.5 233.829,245.333 245.5,245.5C 245.333,233.829 245.5,222.162 246,210.5C 247.366,208.638 248.866,206.972 250.5,205.5 Z"/></g>
</svg>
