<?xml version="1.0" encoding="UTF-8"?>
<!DOCTYPE svg PUBLIC "-//W3C//DTD SVG 1.1//EN" "http://www.w3.org/Graphics/SVG/1.1/DTD/svg11.dtd">
<svg xmlns="http://www.w3.org/2000/svg" version="1.1" width="512px" height="512px" style="shape-rendering:geometricPrecision; text-rendering:geometricPrecision; image-rendering:optimizeQuality; fill-rule:evenodd; clip-rule:evenodd" xmlns:xlink="http://www.w3.org/1999/xlink">
<g><path style="opacity:0.945" fill="#ffffff" d="M 250.5,-0.5 C 253.833,-0.5 257.167,-0.5 260.5,-0.5C 275.734,20.5884 292.734,40.4218 311.5,59C 323.069,69.2295 335.736,77.8962 349.5,85C 365.808,92.098 382.808,94.4313 400.5,92C 413.907,90.1894 427.073,87.356 440,83.5C 444.732,83.1981 448.065,85.1981 450,89.5C 450.954,146.519 450.621,203.519 449,260.5C 438.955,339.098 404.788,404.931 346.5,458C 325.753,476.208 303.42,492.208 279.5,506C 274.841,508.158 270.175,509.991 265.5,511.5C 258.833,511.5 252.167,511.5 245.5,511.5C 240.825,509.991 236.159,508.158 231.5,506C 164.597,468.765 115.43,415.265 84,345.5C 72.6042,318.584 65.2708,290.584 62,261.5C 60.3834,204.184 60.0501,146.851 61,89.5C 62.9351,85.1981 66.2684,83.1981 71,83.5C 83.9268,87.356 97.0934,90.1894 110.5,92C 137.618,95.291 161.952,88.6243 183.5,72C 195.565,62.9409 206.731,52.7742 217,41.5C 228.441,27.5765 239.608,13.5765 250.5,-0.5 Z M 254.5,28.5 C 256.017,28.5106 257.184,29.1772 258,30.5C 276.208,55.708 298.041,77.208 323.5,95C 347.554,110.812 373.887,116.812 402.5,113C 411.586,111.93 420.586,110.43 429.5,108.5C 429.947,158.52 429.447,208.52 428,258.5C 418.344,330.317 387.177,390.817 334.5,440C 313.433,459.035 290.433,475.369 265.5,489C 258.833,491 252.167,491 245.5,489C 182.229,455.062 135.396,405.562 105,340.5C 93.6107,314.278 86.2774,286.944 83,258.5C 81.5477,208.522 81.0477,158.522 81.5,108.5C 101.244,113.114 121.244,114.614 141.5,113C 158.076,110.142 173.409,104.142 187.5,95C 213.667,76.6662 236,54.4995 254.5,28.5 Z M 235.5,181.5 C 248.833,181.5 262.167,181.5 275.5,181.5C 275.333,196.17 275.5,210.837 276,225.5C 276.5,231.333 279.667,234.5 285.5,235C 300.163,235.5 314.83,235.667 329.5,235.5C 329.5,248.833 329.5,262.167 329.5,275.5C 314.83,275.333 300.163,275.5 285.5,276C 279.667,276.5 276.5,279.667 276,285.5C 275.5,300.163 275.333,314.83 275.5,329.5C 262.167,329.5 248.833,329.5 235.5,329.5C 235.667,314.83 235.5,300.163 235,285.5C 234.5,279.667 231.333,276.5 225.5,276C 210.837,275.5 196.17,275.333 181.5,275.5C 181.5,262.167 181.5,248.833 181.5,235.5C 196.17,235.667 210.837,235.5 225.5,235C 231.333,234.5 234.5,231.333 235,225.5C 235.5,210.837 235.667,196.17 235.5,181.5 Z"/></g>
<g><path style="opacity:0.957" fill="#ffffff" d="M 220.5,160.5 C 244.59,160.02 268.59,160.52 292.5,162C 294.049,163.214 295.215,164.714 296,166.5C 296.5,182.497 296.667,198.497 296.5,214.5C 313.262,214.029 329.928,214.529 346.5,216C 348.049,217.214 349.215,218.714 350,220.5C 350.667,243.833 350.667,267.167 350,290.5C 349.215,292.286 348.049,293.786 346.5,295C 329.928,296.471 313.262,296.971 296.5,296.5C 296.971,313.262 296.471,329.928 295,346.5C 293.786,348.049 292.286,349.215 290.5,350C 267.167,350.667 243.833,350.667 220.5,350C 218.714,349.215 217.214,348.049 216,346.5C 214.529,329.928 214.029,313.262 214.5,296.5C 197.738,296.971 181.072,296.471 164.5,295C 162.951,293.786 161.785,292.286 161,290.5C 160.333,267.167 160.333,243.833 161,220.5C 161.785,218.714 162.951,217.214 164.5,216C 181.072,214.529 197.738,214.029 214.5,214.5C 214.333,198.497 214.5,182.497 215,166.5C 216.36,163.977 218.193,161.977 220.5,160.5 Z M 235.5,181.5 C 235.667,196.17 235.5,210.837 235,225.5C 234.5,231.333 231.333,234.5 225.5,235C 210.837,235.5 196.17,235.667 181.5,235.5C 181.5,248.833 181.5,262.167 181.5,275.5C 196.17,275.333 210.837,275.5 225.5,276C 231.333,276.5 234.5,279.667 235,285.5C 235.5,300.163 235.667,314.83 235.5,329.5C 248.833,329.5 262.167,329.5 275.5,329.5C 275.333,314.83 275.5,300.163 276,285.5C 276.5,279.667 279.667,276.5 285.5,276C 300.163,275.5 314.83,275.333 329.5,275.5C 329.5,262.167 329.5,248.833 329.5,235.5C 314.83,235.667 300.163,235.5 285.5,235C 279.667,234.5 276.5,231.333 276,225.5C 275.5,210.837 275.333,196.17 275.5,181.5C 262.167,181.5 248.833,181.5 235.5,181.5 Z"/></g>
<g><path style="opacity:0.884" fill="#ffffff" d="M 378.5,299.5 C 389.49,297.992 394.324,302.658 393,313.5C 387.485,321.668 381.152,322.334 374,315.5C 371.172,308.851 372.672,303.518 378.5,299.5 Z"/></g>
<g><path style="opacity:0.934" fill="#ffffff" d="M 364.5,340.5 C 373.336,340.5 377.503,344.834 377,353.5C 357.567,395.936 328.4,430.103 289.5,456C 280.653,458.743 275.32,455.577 273.5,446.5C 273.763,443.972 274.596,441.639 276,439.5C 311.876,415.623 339.21,384.29 358,345.5C 359.805,343.174 361.972,341.508 364.5,340.5 Z"/></g>
</svg>
