<?xml version="1.0" encoding="UTF-8"?>
<!DOCTYPE svg PUBLIC "-//W3C//DTD SVG 1.1//EN" "http://www.w3.org/Graphics/SVG/1.1/DTD/svg11.dtd">
<svg xmlns="http://www.w3.org/2000/svg" version="1.1" width="512px" height="512px" style="shape-rendering:geometricPrecision; text-rendering:geometricPrecision; image-rendering:optimizeQuality; fill-rule:evenodd; clip-rule:evenodd" xmlns:xlink="http://www.w3.org/1999/xlink">
<g><path style="opacity:0.957" fill="currentColor" d="M 133.5,-0.5 C 137.833,-0.5 142.167,-0.5 146.5,-0.5C 167.681,5.36291 179.015,19.3629 180.5,41.5C 179.892,48.3614 178.725,55.0281 177,61.5C 180.499,65.6717 183.166,70.3384 185,75.5C 198.465,80.6303 208.465,89.6303 215,102.5C 226.573,94.5314 239.406,90.3648 253.5,90C 275.167,89.3333 296.833,89.3333 318.5,90C 323.438,90.2723 326.604,92.7723 328,97.5C 328.667,111.167 328.667,124.833 328,138.5C 327.616,142.653 326.616,146.653 325,150.5C 324.861,171.856 324.195,193.189 323,214.5C 321.723,219.493 320.556,224.493 319.5,229.5C 330.499,230.888 340.666,234.555 350,240.5C 350.333,230.833 350.667,221.167 351,211.5C 352.668,207.835 355.501,205.668 359.5,205C 407.167,204.333 454.833,204.333 502.5,205C 506.53,205.339 509.53,207.173 511.5,210.5C 511.5,227.833 511.5,245.167 511.5,262.5C 507.183,267.02 501.849,268.686 495.5,267.5C 495.5,274.5 495.5,281.5 495.5,288.5C 502.051,287.785 507.384,289.785 511.5,294.5C 511.5,311.833 511.5,329.167 511.5,346.5C 507.183,351.02 501.849,352.686 495.5,351.5C 495.5,358.5 495.5,365.5 495.5,372.5C 502.051,371.785 507.384,373.785 511.5,378.5C 511.5,399.833 511.5,421.167 511.5,442.5C 509.66,444.168 507.66,445.668 505.5,447C 498.508,447.5 491.508,447.666 484.5,447.5C 484.667,467.169 484.5,486.836 484,506.5C 482.27,508.402 480.437,510.069 478.5,511.5C 329.833,511.5 181.167,511.5 32.5,511.5C 30.563,510.069 28.7297,508.402 27,506.5C 26.5,486.836 26.3334,467.169 26.5,447.5C 19.4921,447.666 12.4921,447.5 5.5,447C 3.34004,445.668 1.34004,444.168 -0.5,442.5C -0.5,421.167 -0.5,399.833 -0.5,378.5C 3.61595,373.785 8.94928,371.785 15.5,372.5C 15.5,365.5 15.5,358.5 15.5,351.5C 9.15055,352.686 3.81722,351.02 -0.5,346.5C -0.5,329.167 -0.5,311.833 -0.5,294.5C 3.61595,289.785 8.94928,287.785 15.5,288.5C 15.5,281.5 15.5,274.5 15.5,267.5C 9.15055,268.686 3.81722,267.02 -0.5,262.5C -0.5,245.167 -0.5,227.833 -0.5,210.5C 1.47037,207.173 4.47037,205.339 8.5,205C 56.1667,204.333 103.833,204.333 151.5,205C 155.499,205.668 158.332,207.835 160,211.5C 160.333,221.167 160.667,230.833 161,240.5C 170.368,234.545 180.534,230.878 191.5,229.5C 188.91,221.046 187.41,212.379 187,203.5C 186.333,187.833 186.333,172.167 187,156.5C 187.106,144.187 190.439,132.853 197,122.5C 196.861,113.219 193.194,105.552 186,99.5C 184.607,103.286 182.941,106.952 181,110.5C 175.01,115.839 169.344,115.505 164,109.5C 161.93,104.376 162.264,99.3759 165,94.5C 166.209,88.1141 165.209,82.1141 162,76.5C 158.973,73.473 155.973,70.473 153,67.5C 152.399,65.8632 151.899,64.1966 151.5,62.5C 152.61,57.6139 154.776,53.2805 158,49.5C 161.1,30.5777 152.934,20.4111 133.5,19C 127.61,15.2198 126.11,10.0531 129,3.5C 130.397,1.92975 131.897,0.596413 133.5,-0.5 Z M 253.5,110.5 C 271.5,110.5 289.5,110.5 307.5,110.5C 307.895,120.566 307.395,130.566 306,140.5C 301.736,153.218 292.903,160.051 279.5,161C 255.502,161.5 231.502,161.667 207.5,161.5C 208.936,131.74 224.269,114.74 253.5,110.5 Z M 302.5,175.5 C 304.015,188.76 303.515,202.093 301,215.5C 288.855,245.154 267.355,255.32 236.5,246C 221.753,238.922 212.586,227.422 209,211.5C 207.787,201.537 207.287,191.537 207.5,181.5C 234.835,181.667 262.169,181.5 289.5,181C 294.373,180.216 298.706,178.383 302.5,175.5 Z M 20.5,225.5 C 60.1667,225.5 99.8333,225.5 139.5,225.5C 139.5,232.5 139.5,239.5 139.5,246.5C 99.8333,246.5 60.1667,246.5 20.5,246.5C 20.5,239.5 20.5,232.5 20.5,225.5 Z M 371.5,225.5 C 411.5,225.5 451.5,225.5 491.5,225.5C 491.5,232.5 491.5,239.5 491.5,246.5C 451.5,246.5 411.5,246.5 371.5,246.5C 371.5,239.5 371.5,232.5 371.5,225.5 Z M 200.5,248.5 C 202.288,248.215 203.955,248.548 205.5,249.5C 226.754,270.254 251.587,275.921 280,266.5C 290.429,262.045 299.763,256.045 308,248.5C 316.805,249.284 325.138,251.617 333,255.5C 333.333,271.167 333.667,286.833 334,302.5C 334.786,305.583 336.619,307.749 339.5,309C 343.152,309.499 346.818,309.665 350.5,309.5C 350.5,316.5 350.5,323.5 350.5,330.5C 344.474,329.676 339.307,331.342 335,335.5C 333.561,347.758 333.061,360.091 333.5,372.5C 281.5,372.5 229.5,372.5 177.5,372.5C 177.939,360.091 177.439,347.758 176,335.5C 171.693,331.342 166.526,329.676 160.5,330.5C 160.5,323.5 160.5,316.5 160.5,309.5C 164.182,309.665 167.848,309.499 171.5,309C 174.381,307.749 176.214,305.583 177,302.5C 177.333,286.833 177.667,271.167 178,255.5C 185.239,251.988 192.739,249.654 200.5,248.5 Z M 36.5,267.5 C 76.5,267.5 116.5,267.5 156.5,267.5C 156.5,274.5 156.5,281.5 156.5,288.5C 116.5,288.5 76.5,288.5 36.5,288.5C 36.5,281.5 36.5,274.5 36.5,267.5 Z M 354.5,267.5 C 394.5,267.5 434.5,267.5 474.5,267.5C 474.5,274.5 474.5,281.5 474.5,288.5C 434.5,288.5 394.5,288.5 354.5,288.5C 354.5,281.5 354.5,274.5 354.5,267.5 Z M 20.5,309.5 C 60.1667,309.5 99.8333,309.5 139.5,309.5C 139.5,316.5 139.5,323.5 139.5,330.5C 99.8333,330.5 60.1667,330.5 20.5,330.5C 20.5,323.5 20.5,316.5 20.5,309.5 Z M 371.5,309.5 C 411.5,309.5 451.5,309.5 491.5,309.5C 491.5,316.5 491.5,323.5 491.5,330.5C 451.5,330.5 411.5,330.5 371.5,330.5C 371.5,323.5 371.5,316.5 371.5,309.5 Z M 36.5,351.5 C 76.5,351.5 116.5,351.5 156.5,351.5C 156.5,358.5 156.5,365.5 156.5,372.5C 116.5,372.5 76.5,372.5 36.5,372.5C 36.5,365.5 36.5,358.5 36.5,351.5 Z M 354.5,351.5 C 394.5,351.5 434.5,351.5 474.5,351.5C 474.5,358.5 474.5,365.5 474.5,372.5C 434.5,372.5 394.5,372.5 354.5,372.5C 354.5,365.5 354.5,358.5 354.5,351.5 Z M 20.5,393.5 C 177.5,393.5 334.5,393.5 491.5,393.5C 491.5,404.5 491.5,415.5 491.5,426.5C 467.831,426.333 444.164,426.5 420.5,427C 411.913,429.676 409.413,435.176 413,443.5C 414.214,445.049 415.714,446.215 417.5,447C 433.163,447.5 448.83,447.667 464.5,447.5C 464.5,461.833 464.5,476.167 464.5,490.5C 325.5,490.5 186.5,490.5 47.5,490.5C 47.5,476.167 47.5,461.833 47.5,447.5C 72.5022,447.667 97.5022,447.5 122.5,447C 128.542,443.252 130.042,438.085 127,431.5C 125.833,430.333 124.667,429.167 123.5,428C 89.2156,426.527 54.8822,426.027 20.5,426.5C 20.5,415.5 20.5,404.5 20.5,393.5 Z"/></g>
<g><path style="opacity:0.93" fill="currentColor" d="M 357.5,14.5 C 364.703,14.1708 368.87,17.5041 370,24.5C 370.667,35.5 370.667,46.5 370,57.5C 367.846,66.5635 362.346,69.3968 353.5,66C 351.951,64.786 350.785,63.286 350,61.5C 349.333,47.8333 349.333,34.1667 350,20.5C 351.707,17.4096 354.207,15.4096 357.5,14.5 Z"/></g>
<g><path style="opacity:0.934" fill="currentColor" d="M 440.5,18.5 C 453.15,18.7919 456.983,24.7919 452,36.5C 433.167,55.3333 414.333,74.1667 395.5,93C 387.52,97.6331 381.686,95.7998 378,87.5C 377.416,84.7433 377.75,82.0766 379,79.5C 399.395,58.9378 419.895,38.6045 440.5,18.5 Z"/></g>
<g><path style="opacity:0.939" fill="currentColor" d="M -0.5,97.5 C -0.5,94.5 -0.5,91.5 -0.5,88.5C 4.91068,81.4618 11.0773,80.7951 18,86.5C 24.4517,100.15 34.285,103.484 47.5,96.5C 50.5469,86.2093 56.8803,83.376 66.5,88C 69.0038,92.4285 70.5038,97.2619 71,102.5C 77.421,114.863 86.921,118.029 99.5,112C 102.483,108.687 105.817,105.687 109.5,103C 117.739,101.117 122.739,104.284 124.5,112.5C 123.468,117.694 120.968,122.028 117,125.5C 116.954,130.823 119.454,134.656 124.5,137C 141.645,136.815 154.479,143.981 163,158.5C 165.771,164.577 166.771,170.911 166,177.5C 163.27,184.053 158.437,186.22 151.5,184C 149.714,183.215 148.214,182.049 147,180.5C 146.659,173.124 143.825,166.957 138.5,162C 129.674,160.443 121.007,158.11 112.5,155C 105.349,150.184 100.016,143.85 96.5,136C 78.681,138.173 64.5143,132.006 54,117.5C 30.0156,126.121 11.8489,119.454 -0.5,97.5 Z"/></g>
<g><path style="opacity:0.929" fill="currentColor" d="M 401.5,118.5 C 415.171,118.333 428.837,118.5 442.5,119C 448.898,122.527 450.731,127.693 448,134.5C 446.363,136.81 444.196,138.31 441.5,139C 428.167,139.667 414.833,139.667 401.5,139C 392.232,132.171 392.232,125.338 401.5,118.5 Z"/></g>
<g><path style="opacity:0.924" fill="currentColor" d="M 251.5,207.5 C 259.414,206.749 266.247,209.082 272,214.5C 276.326,226.192 272.16,231.692 259.5,231C 258.069,230.535 256.903,229.701 256,228.5C 250.064,232.729 244.397,232.396 239,227.5C 236.027,220.786 237.527,215.286 243.5,211C 246.158,209.522 248.825,208.355 251.5,207.5 Z"/></g>
<g><path style="opacity:0.887" fill="currentColor" d="M 161.5,426.5 C 170.796,427.298 174.63,432.298 173,441.5C 169.723,447.109 164.89,448.942 158.5,447C 152.136,442.66 150.969,437.16 155,430.5C 157.013,428.752 159.18,427.418 161.5,426.5 Z"/></g>
<g><path style="opacity:0.943" fill="currentColor" d="M 206.5,426.5 C 238.835,426.333 271.168,426.5 303.5,427C 311.3,428.82 314.133,433.653 312,441.5C 310.833,444 309,445.833 306.5,447C 272.167,447.667 237.833,447.667 203.5,447C 197.136,442.66 195.969,437.16 200,430.5C 202.013,428.752 204.18,427.418 206.5,426.5 Z"/></g>
</svg>
